<?xml version="1.0" encoding="UTF-8"?>
<svg version="1.1" xmlns="http://www.w3.org/2000/svg" width="499" height="499">
<path d="M0 0 C1.68718296 0.96498261 3.34887561 1.97454107 5 3 C6.38633297 3.80206535 7.77602583 4.59833538 9.16796875 5.390625 C9.96557617 5.84518066 10.76318359 6.29973633 11.58496094 6.76806641 C12.44379883 7.25710449 13.30263672 7.74614258 14.1875 8.25 C30.60422437 17.61643668 47.00329644 27.01594722 63.27416992 36.6340332 C67.68032092 39.23549338 72.11254573 41.78678583 76.5625 44.3125 C80.74470027 46.6893997 84.85112724 49.13383956 88.9050293 51.72119141 C91.21281627 53.12990696 93.56718715 54.41219589 95.94921875 55.69140625 C102.24693618 59.1097042 108.44004253 62.69509867 114.625 66.3125 C116.25501953 67.26092773 116.25501953 67.26092773 117.91796875 68.22851562 C119.46291016 69.13053711 119.46291016 69.13053711 121.0390625 70.05078125 C121.96928223 70.59387939 122.89950195 71.13697754 123.85791016 71.6965332 C126 73 126 73 127 74 C127.16055953 76.75995056 127.25609797 79.49671163 127.30981445 82.25952148 C127.3301367 83.13117258 127.35045895 84.00282368 127.37139702 84.90088844 C127.43716019 87.82836213 127.49453812 90.75592247 127.55078125 93.68359375 C127.57159571 94.6993643 127.59241016 95.71513485 127.61385536 96.76168633 C128.09012873 120.24049598 128.18750329 143.71887735 128.18530273 167.2019043 C128.18519849 173.02935236 128.19918186 178.85668559 128.21607494 184.68410587 C128.22714689 189.23675596 128.22922393 193.78937693 128.22869301 198.34203911 C128.22986755 200.49542091 128.23425956 202.64880359 128.24202538 204.80217171 C128.25178659 207.77062795 128.24896975 210.73881514 128.24291992 213.70727539 C128.24853943 214.58015701 128.25415894 215.45303864 128.25994873 216.35237122 C128.23765783 220.64132316 128.14597208 224.15748646 126 228 C123.5925293 229.81762695 123.5925293 229.81762695 120.57421875 231.48828125 C119.47343994 232.10840088 118.37266113 232.72852051 117.23852539 233.36743164 C116.05492769 234.0159291 114.87125115 234.66428269 113.6875 235.3125 C112.48791963 235.98328193 111.28926979 236.65573064 110.09155273 237.32983398 C107.75892099 238.64266083 105.42394448 239.95082457 103.08691406 241.25585938 C99.51757624 243.27257477 96.03443415 245.38303769 92.5625 247.5625 C88.06680252 250.37231092 83.49777992 252.96047821 78.828125 255.46875 C67.78864088 261.44592925 57.0017406 267.90148342 46.17504883 274.25195312 C44.67687622 275.12883789 44.67687622 275.12883789 43.1484375 276.0234375 C41.80531494 276.81113525 41.80531494 276.81113525 40.43505859 277.61474609 C38 279 38 279 35.74072266 280.06103516 C33.81941584 280.882092 33.81941584 280.882092 33 283 C31.42702814 283.66414367 29.85193706 284.32350209 28.26953125 284.96484375 C24.43986398 286.71159388 20.89292664 288.94237901 17.27734375 291.08984375 C12.81889522 293.68839122 8.27517492 296.10393765 3.71484375 298.51953125 C0.90124279 300.00182021 0.90124279 300.00182021 -2 302 C-7.5109646 301.77424964 -11.50884002 299.95556843 -16.125 297.125 C-16.71925781 296.77308594 -17.31351562 296.42117188 -17.92578125 296.05859375 C-19.62387199 295.05023523 -21.31218136 294.02545955 -23 293 C-27.7156432 290.14868085 -32.4812658 287.3862389 -37.25 284.625 C-38.05824219 284.15578125 -38.86648437 283.6865625 -39.69921875 283.203125 C-44.35697535 280.50535238 -49.03941827 277.86002756 -53.74951172 275.25488281 C-57.67097378 273.06825719 -61.55391364 270.81550965 -65.4375 268.5625 C-66.6917981 267.8358313 -66.6917981 267.8358313 -67.97143555 267.09448242 C-72.86466653 264.25468216 -77.73079746 261.37581468 -82.5703125 258.4453125 C-86.16942215 256.30436303 -89.81573217 254.24673344 -93.46020508 252.18432617 C-96.67667809 250.35574448 -99.86259107 248.48838477 -103.01953125 246.55859375 C-103.6844458 246.15294189 -104.34936035 245.74729004 -105.03442383 245.3293457 C-106.30964129 244.54799584 -107.5818216 243.76165897 -108.8503418 242.96948242 C-112.48168759 240.74591382 -115.97391167 239.33004704 -120 238 C-120.495 237.01 -120.495 237.01 -121 236 C-122.74020621 234.96738177 -124.51759177 233.99680322 -126.3125 233.0625 C-135.59428879 228.21713362 -135.59428879 228.21713362 -137 224 C-137.09547778 222.0302971 -137.1306416 220.05747768 -137.13371277 218.08546448 C-137.13797775 216.85024048 -137.14224274 215.61501648 -137.14663696 214.34236145 C-137.14628744 212.97116086 -137.14582591 211.59996029 -137.14526367 210.22875977 C-137.1482554 208.786549 -137.15165797 207.34433903 -137.15544128 205.90213013 C-137.16428355 201.98273844 -137.16661948 198.06336857 -137.16725707 194.14396787 C-137.16820609 190.87350004 -137.17188426 187.60303731 -137.17542917 184.33257145 C-137.18357441 176.61778915 -137.18601332 168.90301852 -137.18530273 161.18823242 C-137.18470175 153.22604325 -137.19525753 145.26392179 -137.2110464 137.30174977 C-137.2241144 130.46855906 -137.22948695 123.6353905 -137.22884732 116.80218738 C-137.22859214 112.71977576 -137.23145461 108.6374243 -137.24202538 104.5550251 C-137.25169405 100.71616641 -137.25179404 96.87742558 -137.24450874 93.03856277 C-137.2434614 91.62925101 -137.24583466 90.21993194 -137.2518692 88.81063271 C-137.25957051 86.88760966 -137.25375337 84.96454659 -137.24723816 83.04151917 C-137.24778293 81.96507424 -137.24832769 80.88862932 -137.24888897 79.77956486 C-136.99802927 76.97799109 -136.4991842 75.35493437 -135 73 C-133.43457031 71.75488281 -133.43457031 71.75488281 -131.578125 70.703125 C-130.88952393 70.30593262 -130.20092285 69.90874023 -129.49145508 69.49951172 C-128.38193481 68.88100342 -128.38193481 68.88100342 -127.25 68.25 C-126.10470825 67.59475342 -126.10470825 67.59475342 -124.9362793 66.92626953 C-122.62921555 65.60842748 -120.31482695 64.30414209 -118 63 C-116.75044912 62.28534348 -115.50168254 61.56931292 -114.25390625 60.8515625 C-110.23206037 58.54162604 -106.20112628 56.24798877 -102.16650391 53.96044922 C-93.90618248 49.30798775 -93.90618248 49.30798775 -85.8125 44.375 C-82.95681733 42.557202 -80.04445861 40.91507955 -77.0625 39.3125 C-72.49807681 36.85044021 -68.02203387 34.26982012 -63.5625 31.625 C-55.69114466 26.96201788 -47.7588528 22.40846983 -39.8125 17.875 C-39.23170685 17.54365051 -38.6509137 17.21230103 -38.05252075 16.87091064 C-33.40728025 14.22133929 -28.76125828 11.57313682 -24.11468506 8.92590332 C-22.22588077 7.84959203 -20.33751041 6.77252283 -18.44921875 5.6953125 C-17.33248779 5.05867676 -16.21575684 4.42204102 -15.06518555 3.76611328 C-13.12038794 2.64555048 -11.19951799 1.4814886 -9.31567383 0.26123047 C-5.90239468 -1.59781013 -3.69699281 -0.9242482 0 0 Z M-5 15 C-5.37769531 15.66902344 -5.75539062 16.33804688 -6.14453125 17.02734375 C-12.53132684 28.17058195 -19.41459645 39.04240375 -26.875 49.5 C-28.85584529 52.28527307 -30.63786229 55.0497462 -32.25 58.0625 C-37.8562397 68.48459151 -44.80226968 78.23394347 -51.375 88.0625 C-57.72230797 96.02785855 -57.72230797 96.02785855 -61 105 C-24.04 105 12.92 105 51 105 C51 101.4874992 50.30626262 100.67731623 48.3125 97.875 C46.21344106 94.83921149 44.29800421 91.8194629 42.5625 88.5625 C40.82436506 85.36125147 38.93249153 82.39954424 36.8125 79.4375 C32.2918382 73.11448284 28.26371636 66.49589051 24.17382812 59.890625 C19.97357356 53.12548953 15.67543897 46.43700214 11.1640625 39.875 C10 38 10 38 9 35 C8.34 35 7.68 35 7 35 C6.62875 33.96939453 6.62875 33.96939453 6.25 32.91796875 C4.79324749 29.5173621 2.95543269 26.44048381 1 23.3125 C0.46632813 22.44141602 0.46632813 22.44141602 -0.078125 21.55273438 C-1.57663208 19.1344347 -2.98124569 17.01875431 -5 15 Z M-26 23 C-26.66128906 23.47566406 -26.66128906 23.47566406 -27.3359375 23.9609375 C-33.28572884 28.08703801 -39.52343806 31.56620096 -45.86108398 35.04663086 C-51.10254962 37.93074719 -56.28978985 40.88931458 -61.4375 43.9375 C-67.46466637 47.50459846 -73.50247613 51.05142706 -79.5625 54.5625 C-80.74706787 55.24892578 -80.74706787 55.24892578 -81.95556641 55.94921875 C-87.85557029 59.35881144 -93.78561192 62.712742 -99.75024414 66.00805664 C-103.63087841 68.16741264 -107.31533376 70.5244463 -111 73 C-112.98507948 74.02930047 -114.98114251 75.03863929 -117 76 C-116.96044102 77.92309422 -116.96044102 77.92309422 -116 80 C-112.24608256 82.30430294 -112.24608256 82.30430294 -108 83 C-108 83.66 -108 84.32 -108 85 C-107.39414063 85.29132813 -106.78828125 85.58265625 -106.1640625 85.8828125 C-99.89669944 88.94899935 -93.95276908 92.36898543 -88 96 C-85.83746328 97.29856927 -83.67073121 98.5901758 -81.5 99.875 C-80.4996875 100.47054687 -79.499375 101.06609375 -78.46875 101.6796875 C-76.17266849 103.1572006 -76.17266849 103.1572006 -74 103 C-72.40222476 100.82248821 -72.40222476 100.82248821 -70.875 98.125 C-70.33617187 97.22007812 -69.79734375 96.31515625 -69.2421875 95.3828125 C-67.8459107 93.15227978 -67.8459107 93.15227978 -68 91 C-67.34 91 -66.68 91 -66 91 C-64.77896473 89.32634965 -64.77896473 89.32634965 -63.5625 87.0625 C-60.69271208 82.11774287 -57.67014144 77.29716127 -54.5625 72.5 C-54.08417725 71.76080322 -53.60585449 71.02160645 -53.11303711 70.26000977 C-50.52581338 66.28262279 -47.88280517 62.36213415 -45.125 58.5 C-42.63045371 54.99589615 -40.54741629 51.43065329 -38.53125 47.63671875 C-36.02389686 43.31921015 -33.15882947 39.23234189 -30.30151367 35.13989258 C-27.65321602 31.41968109 -27.65321602 31.41968109 -27 27 C-26.34 27 -25.68 27 -25 27 C-24.67 26.01 -24.34 25.02 -24 24 C-24.99 23.505 -24.99 23.505 -26 23 Z M17 24 C17 28.70865216 18.5924128 30.9484639 21.125 34.6875 C21.53588867 35.31035889 21.94677734 35.93321777 22.37011719 36.57495117 C24.14756033 39.26303814 25.95362872 41.93137051 27.7578125 44.6015625 C30.15071553 48.14706804 32.40889695 51.66915648 34.4375 55.4375 C36.72592563 59.65609933 39.3930949 63.49990779 42.1796875 67.40234375 C45.28274056 71.83052033 48.12388607 76.42261332 51 81 C52.16548808 82.83408281 53.33215285 84.66741842 54.5 86.5 C58 92 61.5 97.5 65 103 C69.24343238 101.73070351 72.6576259 100.1449469 76.375 97.75 C80.91939992 94.87064276 85.50498904 92.12190752 90.18359375 89.46484375 C91.2730127 88.84319336 92.36243164 88.22154297 93.48486328 87.58105469 C95.69321335 86.32441763 97.90641884 85.07627305 100.12451172 83.83691406 C101.14174316 83.25522461 102.15897461 82.67353516 103.20703125 82.07421875 C104.1297583 81.55432373 105.05248535 81.03442871 106.00317383 80.4987793 C106.99160278 79.75688354 106.99160278 79.75688354 108 79 C108 78.01 108 77.02 108 76 C106.14970275 74.49775057 106.14970275 74.49775057 103.6875 73.1875 C102.76839844 72.66285156 101.84929687 72.13820312 100.90234375 71.59765625 C97.25589903 69.59039395 93.60725725 67.58825322 89.9453125 65.609375 C84.94963192 62.87963972 80.02233494 60.03027167 75.0859375 57.1953125 C72.82005783 55.89688707 70.55094001 54.60425283 68.28125 53.3125 C57.62423336 47.24329414 47.00648511 41.11164931 36.43408203 34.89599609 C30.02204036 31.13759211 23.54497963 27.52176928 17 24 Z M-124 89 C-125.3202202 94.00292465 -125.13285833 98.98184992 -125.11352539 104.11450195 C-125.11367142 105.12960342 -125.11381744 106.1447049 -125.1139679 107.19056702 C-125.11327223 110.53982697 -125.10549597 113.88903104 -125.09765625 117.23828125 C-125.09579084 119.56284047 -125.09436752 121.88740008 -125.09336853 124.21195984 C-125.08955302 130.32590829 -125.07973095 136.43983292 -125.06866455 142.55377197 C-125.05842968 148.79430825 -125.05386646 155.03484837 -125.04882812 161.27539062 C-125.03810784 173.51693754 -125.02104299 185.75846679 -125 198 C-122.32269882 194.7194018 -120.19375202 191.70218983 -118.375 187.875 C-115.69065818 182.35642925 -112.87386172 176.92223965 -110 171.5 C-106.79294136 165.43645189 -103.65405504 159.35016232 -100.6171875 153.19921875 C-98.93035071 149.86221554 -97.18334506 146.56187085 -95.42724609 143.26098633 C-90.3104712 133.6404135 -85.54031105 123.90498025 -81 114 C-83.6400101 110.96956588 -86.75742637 109.31266071 -90.25 107.375 C-95.49205191 104.43958897 -100.67270463 101.42351461 -105.8125 98.3125 C-114.45050767 92.10345336 -114.45050767 92.10345336 -124 89 Z M109.78515625 90.8515625 C108.16577148 91.75841797 108.16577148 91.75841797 106.51367188 92.68359375 C104.8053418 93.64458984 104.8053418 93.64458984 103.0625 94.625 C101.95841797 95.24246094 100.85433594 95.85992187 99.71679688 96.49609375 C90.3280978 101.76441278 81.10963778 107.26430214 72 113 C72.63020188 115.94450024 73.57731359 118.33711577 75.00390625 120.984375 C75.4107666 121.7465332 75.81762695 122.50869141 76.23681641 123.29394531 C76.67429199 124.10444336 77.11176758 124.91494141 77.5625 125.75 C80.83253925 131.87825245 84.04927074 138.02184193 87.125 144.25 C89.63450832 149.32607943 92.23641177 154.33590121 94.9375 159.3125 C98.50071196 165.88720078 101.71875495 172.60412905 104.85522461 179.3918457 C108.01433323 186.1909069 111.27634686 192.09543358 116 198 C116 161.7 116 125.4 116 88 C113.85820793 88 111.57074749 89.8509257 109.78515625 90.8515625 Z M-61 117 C-61.33 117.66 -61.66 118.32 -62 119 C-61.03946239 121.2632275 -60.01203676 123.3879914 -58.875 125.5625 C-58.5238916 126.24852295 -58.1727832 126.9345459 -57.81103516 127.64135742 C-56.54936943 130.09880486 -55.27460906 132.54924185 -54 135 C-52.92680196 137.07797971 -51.85390134 139.15611303 -50.78125 141.234375 C-46.08296278 150.31499063 -41.36144638 159.37488695 -36.44677734 168.34057617 C-34.12060919 172.61647048 -31.87346241 176.93288678 -29.625 181.25 C-26.08895848 188.02012355 -22.53369785 194.77870291 -18.93164062 201.51391602 C-16.31881054 206.39950423 -13.71876201 211.29176118 -11.125 216.1875 C-10.74327637 216.90711914 -10.36155273 217.62673828 -9.96826172 218.36816406 C-8.27697627 221.56205354 -6.59292046 224.75547254 -5 228 C-2.45800471 226.72900235 -2.23714328 225.73048522 -1.08203125 223.16796875 C-0.71835449 222.37543701 -0.35467773 221.58290527 0.02001953 220.76635742 C0.40528809 219.91533447 0.79055664 219.06431152 1.1875 218.1875 C4.26343086 211.53164075 7.52544368 205.15780114 11.32421875 198.87890625 C13.1798287 195.69106352 14.8129997 192.43634033 16.4375 189.125 C18.7819408 184.35238838 21.26347506 179.72098037 23.9375 175.125 C27.02506108 169.81427725 29.85578508 164.40962852 32.56689453 158.89746094 C36.64106988 150.63936813 40.91414348 142.48390814 45.16455078 134.31567383 C45.74575684 133.19829834 46.32696289 132.08092285 46.92578125 130.9296875 C47.44567627 129.93179199 47.96557129 128.93389648 48.5012207 127.90576172 C48.99581787 126.94686035 49.49041504 125.98795898 50 125 C50.55840576 123.9289502 51.11681152 122.85790039 51.69213867 121.75439453 C53.14297647 119.20707558 53.14297647 119.20707558 53 117 C15.38 117 -22.24 117 -61 117 Z M-74 126 C-80.85379098 138.44433421 -87.54388831 150.96927755 -93.84155273 163.70458984 C-96.61521255 169.28989552 -99.52049914 174.80098837 -102.4375 180.3125 C-106.55395617 188.0935017 -110.43721028 195.95314901 -114.09545898 203.96020508 C-116.70179544 209.60860651 -116.70179544 209.60860651 -118.6875 212.21484375 C-120.31033698 214.42209524 -120.53258587 216.3290231 -121 219 C-108.68705355 221.05564865 -96.40081028 223.07939189 -83.97924805 224.35107422 C-78.95740461 224.87043566 -74.02433637 225.6324001 -69.0546875 226.5078125 C-64.88573425 227.17953643 -60.69918445 227.63638035 -56.50317383 228.10498047 C-47.5511208 229.12812835 -38.63377107 230.41540065 -29.71313477 231.67919922 C-27.89446899 231.93467529 -27.89446899 231.93467529 -26.0390625 232.1953125 C-24.40251709 232.42758545 -24.40251709 232.42758545 -22.73291016 232.66455078 C-19.96262792 233.060915 -19.96262792 233.060915 -17 233 C-18.31570853 222.8032589 -24.51468913 214.02037887 -29.53442383 205.21655273 C-32.61174241 199.7836761 -35.43351569 194.25009392 -38.19091797 188.64941406 C-40.04756032 184.88416936 -41.96336632 181.17252812 -44 177.5 C-46.38142218 173.20447773 -48.58167986 168.84251795 -50.75 164.4375 C-54.15131793 157.54156322 -57.81041468 150.81212717 -61.58691406 144.11499023 C-63.83564617 140.12453099 -65.98897827 136.1178064 -68 132 C-68.556875 130.88625 -69.11375 129.7725 -69.6875 128.625 C-70.120625 127.75875 -70.55375 126.8925 -71 126 C-71.99 126 -72.98 126 -74 126 Z M62 126 C61.52542358 126.91942383 61.52542358 126.91942383 61.04125977 127.85742188 C50.40628962 148.43105918 50.40628962 148.43105918 45.1875 157.5625 C41.85338707 163.40070217 38.78273891 169.3273793 35.81640625 175.36328125 C33.40518853 180.23822226 30.82518975 185.02365993 28.265625 189.82177734 C26.11047675 193.87187463 24.01839082 197.9418517 22 202.0625 C19.26803079 207.60296417 16.25161303 212.96211625 13.15820312 218.30688477 C10.788275 222.44015226 8.66136856 226.52708465 7 231 C7.33 231.66 7.66 232.32 8 233 C12.08393542 232.54693558 16.16701612 232.0865547 20.25 231.625 C21.38953125 231.49867188 22.5290625 231.37234375 23.703125 231.2421875 C30.25839484 230.49727047 36.74410092 229.57443078 43.24462891 228.45068359 C47.17030834 227.80857796 51.10542019 227.39218721 55.0625 227 C60.81706032 226.39721534 66.45216486 225.60977695 72.1328125 224.49609375 C76.42395989 223.75362002 80.7460028 223.30661234 85.07226562 222.82470703 C94.08394477 221.79919873 103.03863969 220.39007657 112 219 C110.43338657 213.59907857 107.97021592 208.91979122 105.3125 204 C104.40378039 202.29749766 103.49623505 200.59436804 102.58984375 198.890625 C102.14624512 198.05724609 101.70264648 197.22386719 101.24560547 196.36523438 C99.57037157 193.18419438 97.96810807 189.97300847 96.375 186.75 C94.04917289 182.0494382 91.62492108 177.42121465 89.125 172.8125 C86.01530407 167.07263007 83.18963497 161.23137121 80.4375 155.3125 C77.42189766 148.83343998 74.20795723 142.65330254 70.5078125 136.53515625 C68.47075326 133.1101525 66.72602159 129.59012491 65 126 C64.01 126 63.02 126 62 126 Z M-96 234 C-96 234.99 -96 235.98 -96 237 C-95.23300781 237.43828125 -94.46601563 237.8765625 -93.67578125 238.328125 C-91.92748146 239.32715345 -90.1792008 240.32621545 -88.43115234 241.32568359 C-84.70210586 243.45747175 -80.97132139 245.5861497 -77.23828125 247.7109375 C-65.51377465 254.38987117 -53.84225591 261.15549492 -42.1953125 267.96875 C-39.17489504 269.73494466 -36.15026701 271.49195755 -33.109375 273.22265625 C-29.64293474 275.20410137 -26.23099197 277.264532 -22.8203125 279.33984375 C-18.92290466 281.63402426 -14.95338071 283.80367738 -11 286 C-11 272.8 -11 259.6 -11 246 C-15.57174307 244.6937877 -19.37235029 243.68368663 -23.97265625 243.0703125 C-25.10461426 242.91675293 -26.23657227 242.76319336 -27.40283203 242.60498047 C-28.61052246 242.44658691 -29.81821289 242.28819336 -31.0625 242.125 C-32.99926971 241.86513836 -34.93603931 241.6052759 -36.87280273 241.34536743 C-38.89136205 241.07541441 -40.9102421 240.8079759 -42.92919922 240.54101562 C-46.92431542 240.01179151 -50.91727195 239.46768993 -54.91015625 238.921875 C-68.58766324 237.06062727 -82.25848848 235.31530841 -96 234 Z M76.875 234.875 C75.7446936 235.01035156 75.7446936 235.01035156 74.59155273 235.1484375 C70.39383716 235.663813 66.22850949 236.26585008 62.0625 237 C56.27700118 238.01862978 50.47378018 238.63275337 44.63525391 239.25 C39.42824189 239.81137927 34.29710809 240.57817062 29.140625 241.5 C24.4639105 242.24455156 19.75997075 242.74160778 15.04858398 243.21484375 C14.02486694 243.32505859 14.02486694 243.32505859 12.98046875 243.4375 C12.38129639 243.49808594 11.78212402 243.55867187 11.16479492 243.62109375 C8.05588804 244.16524887 5.03473269 245.13293352 2 246 C2 258.54 2 271.08 2 284 C11.89520673 284 24.89730819 273.00864552 33.24487305 268.06396484 C39.3821228 264.44755944 45.57941486 261.08690483 52 258 C52 257.34 52 256.68 52 256 C53.32451172 255.60554688 53.32451172 255.60554688 54.67578125 255.203125 C57.91397935 254.03113321 60.33958951 252.66296862 63.1875 250.75 C68.64344289 247.18407251 74.25121924 244.06333632 80 241 C82.06357936 239.87698109 84.12611057 238.75203366 86.1875 237.625 C87.79166667 236.75 89.39583333 235.875 91 235 C91 234.67 91 234.34 91 234 C86.23294955 233.89539388 81.59911154 234.29521056 76.875 234.875 Z " fill="#151515" transform="translate(254,99)"/>
<path d="M0 0 C0 0.66 0 1.32 0 2 C-0.99 2.33 -1.98 2.66 -3 3 C-3.7425 3.804375 -4.485 4.60875 -5.25 5.4375 C-8.42643681 8.39736157 -10.84966523 8.95267374 -15 10 C-15.02333472 29.65341105 -15.040982 49.3068193 -15.05181217 68.96024132 C-15.05697391 78.08515256 -15.06401428 87.21005521 -15.07543945 96.33496094 C-15.08539002 104.28592294 -15.09185432 112.23687872 -15.09408849 120.18784678 C-15.09539496 124.39989086 -15.09847683 128.61191714 -15.10573006 132.82395554 C-15.11249613 136.78503258 -15.11461575 140.7460844 -15.11310768 144.70716667 C-15.11338374 146.16407979 -15.1153854 147.62099371 -15.11920547 149.07790184 C-15.12415179 151.06091076 -15.12239542 153.04393309 -15.12025452 155.02694702 C-15.12117631 156.13862936 -15.1220981 157.2503117 -15.12304783 158.39568138 C-15.17674247 160.98360074 -15.17674247 160.98360074 -14 163 C-14.99 162.67 -15.98 162.34 -17 162 C-18.07265528 158.78203417 -18.12844262 156.46945161 -18.13371277 153.08546448 C-18.13797775 151.85024048 -18.14224274 150.61501648 -18.14663696 149.34236145 C-18.14628744 147.97116086 -18.14582591 146.59996029 -18.14526367 145.22875977 C-18.1482554 143.786549 -18.15165797 142.34433903 -18.15544128 140.90213013 C-18.16428355 136.98273844 -18.16661948 133.06336857 -18.16725707 129.14396787 C-18.16820609 125.87350004 -18.17188426 122.60303731 -18.17542917 119.33257145 C-18.18357441 111.61778915 -18.18601332 103.90301852 -18.18530273 96.18823242 C-18.18470175 88.22604325 -18.19525753 80.26392179 -18.2110464 72.30174977 C-18.2241144 65.46855906 -18.22948695 58.6353905 -18.22884732 51.80218738 C-18.22859214 47.71977576 -18.23145461 43.6374243 -18.24202538 39.5550251 C-18.25169405 35.71616641 -18.25179404 31.87742558 -18.24450874 28.03856277 C-18.2434614 26.62925101 -18.24583466 25.21993194 -18.2518692 23.81063271 C-18.25957051 21.88760966 -18.25375337 19.96454659 -18.24723816 18.04151917 C-18.24778293 16.96507424 -18.24832769 15.88862932 -18.24888897 14.77956486 C-17.99459722 11.93966236 -17.58456587 10.35080616 -16 8 C-13.67809654 6.44068248 -11.44588541 5.07608245 -9 3.75 C-8.03707031 3.20472656 -8.03707031 3.20472656 -7.0546875 2.6484375 C-2.29546523 0 -2.29546523 0 0 0 Z " fill="#CFCFCF" transform="translate(135,164)"/>
<path d="M0 0 C0 38.61 0 77.22 0 117 C-3 113 -3 113 -3 111 C-3.66 111 -4.32 111 -5 111 C-4.67 109.68 -4.34 108.36 -4 107 C-3.34 107.99 -2.68 108.98 -2 110 C-2 74.69 -2 39.38 -2 3 C-4.97 4.65 -7.94 6.3 -11 8 C-11.66 7.67 -12.32 7.34 -13 7 C-9.41481864 2.87160934 -5.76384243 0 0 0 Z " fill="#DADADA" transform="translate(371,185)"/>
<path d="M0 0 C0 0.33 0 0.66 0 1 C-9.86645421 2.74937131 -19.69728434 4.26534671 -29.6652832 5.30029297 C-34.77189747 5.83830227 -39.79864758 6.59788915 -44.85546875 7.49609375 C-49.56556715 8.2508797 -54.29890548 8.77655787 -59.03930664 9.30273438 C-63.06261141 9.75276212 -66.99975046 10.33329174 -71 11 C-71 23.54 -71 36.08 -71 49 C-69.02 48.01 -67.04 47.02 -65 46 C-64.34 46.33 -63.68 46.66 -63 47 C-64.45449401 48.0055761 -65.91372443 49.00430435 -67.375 50 C-68.18710937 50.556875 -68.99921875 51.11375 -69.8359375 51.6875 C-72 53 -72 53 -74 53 C-74.02464513 46.8944529 -74.04283371 40.78893449 -74.05493164 34.68334961 C-74.05997288 32.60456844 -74.06680574 30.52579084 -74.07543945 28.44702148 C-74.08751422 25.46597414 -74.09323024 22.48497351 -74.09765625 19.50390625 C-74.10539818 18.10078941 -74.10539818 18.10078941 -74.11329651 16.66932678 C-74.11337204 15.80850998 -74.11344757 14.94769318 -74.11352539 14.06079102 C-74.115746 13.29912125 -74.11796661 12.53745148 -74.12025452 11.75270081 C-74 10 -74 10 -73 9 C-70.68176826 8.60106362 -68.37758497 8.25823912 -66.046875 7.94921875 C-65.32725586 7.85036377 -64.60763672 7.75150879 -63.86621094 7.6496582 C-61.49467938 7.32483946 -59.12238444 7.00602501 -56.75 6.6875 C-55.11616385 6.46559707 -53.48237506 6.24334518 -51.84863281 6.02075195 C-49.35181736 5.680692 -46.85495255 5.34103693 -44.35784912 5.00309753 C-39.04791359 4.28368086 -33.74170018 3.5417152 -28.4375 2.78125 C-26.48312012 2.50341675 -26.48312012 2.50341675 -24.48925781 2.2199707 C-22.05575764 1.87344002 -19.62278036 1.52321044 -17.19042969 1.16870117 C-11.39442154 0.35180556 -5.85347641 -0.19273642 0 0 Z " fill="#CFCFCF" transform="translate(328,334)"/>
<path d="M0 0 C3.96 1.98 3.96 1.98 8 4 C5 5 5 5 2 4 C2 38.98 2 73.96 2 110 C2.99 109.505 2.99 109.505 4 109 C2.25 114.75 2.25 114.75 0 117 C0 78.39 0 39.78 0 0 Z " fill="#D5D5D5" transform="translate(128,185)"/>
<path d="M0 0 C39.27 0 78.54 0 119 0 C118.34 1.98 117.68 3.96 117 6 C116.505 4.515 116.505 4.515 116 3 C116.33 2.34 116.66 1.68 117 1 C60.57 1.495 60.57 1.495 3 2 C2.67 3.32 2.34 4.64 2 6 C1.34 4.02 0.68 2.04 0 0 Z " fill="#ECECEC" transform="translate(190,215)"/>
<path d="M0 0 C3.02891392 2.5936209 4.41206358 5.55845122 6.125 9.125 C6.73383748 10.3745959 7.34460944 11.62325061 7.95703125 12.87109375 C8.28268066 13.5347998 8.60833008 14.19850586 8.94384766 14.88232422 C10.83918464 18.68263698 12.82471325 22.43493861 14.8125 26.1875 C15.19744629 26.91791504 15.58239258 27.64833008 15.97900391 28.40087891 C16.34300293 29.08714355 16.70700195 29.7734082 17.08203125 30.48046875 C17.40405518 31.08785889 17.7260791 31.69524902 18.05786133 32.32104492 C18.95944856 33.92773458 19.97803941 35.46705912 21 37 C22.32 34.36 23.64 31.72 25 29 C26 31 26 31 25.22265625 33.3828125 C24.64837891 34.74019531 24.64837891 34.74019531 24.0625 36.125 C23.68222656 37.03507812 23.30195313 37.94515625 22.91015625 38.8828125 C22.60980469 39.58148438 22.30945313 40.28015625 22 41 C20.09765625 40.78125 20.09765625 40.78125 18 40 C17.05859375 37.96875 17.05859375 37.96875 16.4375 35.5 C15.87568023 33.07263988 15.87568023 33.07263988 15 31 C14.01 30.67 13.02 30.34 12 30 C12 28.02 12 26.04 12 24 C11.01 24 10.02 24 9 24 C8.7525 23.0925 8.505 22.185 8.25 21.25 C7.24474431 17.95709694 7.24474431 17.95709694 4.9375 16 C2.44930601 13.43154169 2.4534813 11.47669 2 8 C1.34 7.34 0.68 6.68 0 6 C-0.125 2.875 -0.125 2.875 0 0 Z " fill="#9D9D9D" transform="translate(229,289)"/>
<path d="M0 0 C0.33 0.66 0.66 1.32 1 2 C0.67 2.66 0.34 3.32 0 4 C0.57445264 3.99484627 1.14890528 3.98969254 1.74076557 3.98438263 C15.71168349 3.85905102 29.68260274 3.73386898 43.65352345 3.60884857 C50.40972266 3.54838719 57.16592143 3.48787556 63.92211914 3.42724609 C70.43840618 3.3687697 76.95469445 3.31043275 83.47098351 3.25218201 C85.96094492 3.2299006 88.45090591 3.20757193 90.94086647 3.18519592 C94.41996783 3.15393897 97.89907063 3.12284784 101.37817383 3.09179688 C102.41467072 3.08244614 103.4511676 3.0730954 104.51907349 3.0634613 C105.93883736 3.05084007 105.93883736 3.05084007 107.38728333 3.03796387 C108.21044446 3.03058952 109.03360559 3.02321518 109.88171101 3.01561737 C111.58776891 3.00303923 113.29389573 3 115 3 C115 3.66 115 4.32 115 5 C76.39 5 37.78 5 -2 5 C-1.34 3.35 -0.68 1.7 0 0 Z " fill="#FBFBFB" transform="translate(193,200)"/>
<path d="M0 0 C2.24092012 1.92078867 3.19505382 3.40636213 4.5 6.125 C5.73106508 9.29636171 5.73106508 9.29636171 9 10 C10.38671875 12.43359375 10.38671875 12.43359375 11.6875 15.4375 C12.12449219 16.42621094 12.56148438 17.41492188 13.01171875 18.43359375 C14 21 14 21 14 23 C13.11957031 23.12117188 12.23914063 23.24234375 11.33203125 23.3671875 C10.17058594 23.53476562 9.00914062 23.70234375 7.8125 23.875 C6.66394531 24.03742188 5.51539063 24.19984375 4.33203125 24.3671875 C1.0636822 24.86473827 1.0636822 24.86473827 -1.5625 26.09375 C-4.56589142 27.21039553 -6.64884577 27.00616316 -9.8125 26.625 C-11.27623047 26.45871094 -11.27623047 26.45871094 -12.76953125 26.2890625 C-13.50558594 26.19367188 -14.24164063 26.09828125 -15 26 C-15 25.67 -15 25.34 -15 25 C-12.14694871 24.49279088 -9.29283186 23.99406366 -6.4375 23.5 C-5.63763672 23.35691406 -4.83777344 23.21382813 -4.01367188 23.06640625 C0.73524598 22.25230605 5.18246077 21.84480411 10 22 C9.44570313 20.91460937 8.89140625 19.82921875 8.3203125 18.7109375 C7.58832633 17.26573404 6.85656752 15.82041542 6.125 14.375 C5.76019531 13.66214844 5.39539063 12.94929688 5.01953125 12.21484375 C2.99999073 8.21248163 1.2918889 4.31082927 0 0 Z " fill="#6B6B6B" transform="translate(356,296)"/>
<path d="M0 0 C6.15234375 -0.09765625 6.15234375 -0.09765625 8 0 C9 1 9 1 9.12025452 2.75270081 C9.1169236 3.89520546 9.1169236 3.89520546 9.11352539 5.06079102 C9.11344986 5.92160782 9.11337433 6.78242462 9.11329651 7.66932678 C9.10813522 8.60473801 9.10297394 9.54014923 9.09765625 10.50390625 C9.0962413 11.45692123 9.09482635 12.40993622 9.09336853 13.39183044 C9.08775152 16.44875165 9.07519616 19.50560077 9.0625 22.5625 C9.05748719 24.62955624 9.05292391 26.69661362 9.04882812 28.76367188 C9.03777656 33.84247588 9.02050055 38.9212257 9 44 C8.01 43.67 7.02 43.34 6 43 C6 29.47 6 15.94 6 2 C3.03 1.505 3.03 1.505 0 1 C0 0.67 0 0.34 0 0 Z " fill="#CFCFCF" transform="translate(236,343)"/>
<path d="M0 0 C5.36039794 -0.50817228 8.6921655 1.11996953 13.125 3.875 C14.33548373 4.60231825 15.5464095 5.32890139 16.7578125 6.0546875 C18.36269531 7.01761719 18.36269531 7.01761719 20 8 C20.78503906 8.37640625 21.57007813 8.7528125 22.37890625 9.140625 C24 10 24 10 24.8125 11.875 C26.68884715 15.23267384 29.62577604 16.25040239 33 18 C32.01 18.495 32.01 18.495 31 19 C28.57324219 17.8918457 28.57324219 17.8918457 25.546875 16.17578125 C23.90525391 15.25055664 23.90525391 15.25055664 22.23046875 14.30664062 C21.37267822 13.81514526 21.37267822 13.81514526 20.49755859 13.3137207 C18.7750396 12.32684582 17.0457585 11.35180414 15.31640625 10.37695312 C10.08763631 7.41316618 4.91992349 4.45574767 0 1 C0 0.67 0 0.34 0 0 Z " fill="#5B5B5B" transform="translate(164,352)"/>
<path d="M0 0 C5.79401215 7.44695855 10.0797774 15.97370168 14.3125 24.375 C14.81849731 25.37321777 14.81849731 25.37321777 15.3347168 26.39160156 C17.22082444 30.18764939 18.75956956 33.9323956 20 38 C14.225924 33.82300885 14.225924 33.82300885 13.125 29.8125 C13.05374999 28.20937485 13 26.6047077 13 25 C12.01 25.33 11.02 25.66 10 26 C8.90565975 23.44653942 8.02871402 21.19621248 7.625 18.4375 C6.83063566 15.33947906 5.26532215 14.19453083 3 12 C2.375 9.8125 2.375 9.8125 2 8 C1.34 7.67 0.68 7.34 0 7 C0 4.69 0 2.38 0 0 Z " fill="#838383" transform="translate(209,251)"/>
<path d="M0 0 C0.66 1.32 1.32 2.64 2 4 C1.38125 4.37125 0.7625 4.7425 0.125 5.125 C-2.58167172 7.51323975 -3.01915318 9.56703614 -4 13 C-4.875 15.3125 -4.875 15.3125 -6 17 C-8.125 17.75 -8.125 17.75 -10 18 C-10 19.65 -10 21.3 -10 23 C-12.31 23.99 -14.62 24.98 -17 26 C-17.12375 25.360625 -17.2475 24.72125 -17.375 24.0625 C-17.58125 23.381875 -17.7875 22.70125 -18 22 C-18.66 21.67 -19.32 21.34 -20 21 C-17.83125748 21.50603992 -16.00032373 21.99983813 -14 23 C-13.7525 22.319375 -13.505 21.63875 -13.25 20.9375 C-11.75802092 17.43134917 -9.93164489 14.28379632 -8 11 C-7.34 11 -6.68 11 -6 11 C-5.7525 10.29875 -5.505 9.5975 -5.25 8.875 C-3.83911974 5.62997541 -2.02104602 2.89683263 0 0 Z " fill="#606060" transform="translate(194,179)"/>
<path d="M0 0 C0.33 0.66 0.66 1.32 1 2 C1.99 2 2.98 2 4 2 C4 2.66 4 3.32 4 4 C4.66 4 5.32 4 6 4 C7.05771739 5.63064764 8.05273046 7.30280873 9 9 C9.99 10.485 9.99 10.485 11 12 C11.38499891 13.65549531 11.72793135 15.3222433 12 17 C12.99 17.33 13.98 17.66 15 18 C15.33 19.65 15.66 21.3 16 23 C16.99 23.33 17.98 23.66 19 24 C19.33 24.99 19.66 25.98 20 27 C19.34 27.99 18.68 28.98 18 30 C16.32480882 27.56798137 14.65974866 25.13002202 13 22.6875 C12.28457031 21.65206055 12.28457031 21.65206055 11.5546875 20.59570312 C11.10351562 19.92861328 10.65234375 19.26152344 10.1875 18.57421875 C9.76855469 17.96151123 9.34960938 17.34880371 8.91796875 16.7175293 C8 15 8 15 8 12 C7.34 12 6.68 12 6 12 C4.4921875 10.13671875 4.4921875 10.13671875 2.875 7.6875 C2.33617187 6.88699219 1.79734375 6.08648437 1.2421875 5.26171875 C0 3 0 3 0 0 Z " fill="#4F4F4F" transform="translate(255,122)"/>
<path d="M0 0 C0.33 1.32 0.66 2.64 1 4 C0.34 4 -0.32 4 -1 4 C-1.309375 5.2375 -1.61875 6.475 -1.9375 7.75 C-2.29166667 9.16666667 -2.64583333 10.58333333 -3 12 C-3.14566406 12.68578125 -3.29132813 13.3715625 -3.44140625 14.078125 C-4 16 -4 16 -6 19 C-6.99 19 -7.98 19 -9 19 C-9.1546875 20.6396875 -9.1546875 20.6396875 -9.3125 22.3125 C-10.04111021 26.22050024 -10.30393699 26.51132645 -13 29 C-14.14240597 31.2899812 -15.05580895 33.61704162 -16 36 C-16.66 36 -17.32 36 -18 36 C-16.649616 31.61413391 -14.93261712 27.68037664 -12.8125 23.61328125 C-12.50932861 23.02959274 -12.20615723 22.44590424 -11.89379883 21.8445282 C-11.25711154 20.6207796 -10.61832838 19.39811933 -9.97753906 18.17651367 C-8.99847053 16.30958354 -8.0260593 14.4393038 -7.0546875 12.56835938 C-2.31258372 3.46887557 -2.31258372 3.46887557 0 0 Z " fill="#A9A9A9" transform="translate(305,221)"/>
<path d="M0 0 C0.99 0.66 1.98 1.32 3 2 C-2.61785891 5.97931673 -8.46707058 9.5196164 -14.4375 12.9375 C-15.14777344 13.3512085 -15.85804688 13.76491699 -16.58984375 14.19116211 C-18.35856548 15.19138275 -20.17628833 16.10395669 -22 17 C-22.66 16.67 -23.32 16.34 -24 16 C-23.5 14.125 -23.5 14.125 -22 12 C-19.34822355 11.01505446 -16.79452693 10.54087618 -14 10 C-14 9.34 -14 8.68 -14 8 C-9.38 5.36 -4.76 2.72 0 0 Z " fill="#969696" transform="translate(225,121)"/>
<path d="M0 0 C0.33 0.99 0.66 1.98 1 3 C-0.08203125 4.91796875 -0.08203125 4.91796875 -1.8125 7.1875 C-5.73734875 12.52086302 -9.19940447 18.0669319 -12.62231445 23.72924805 C-15.78789636 28.89394818 -15.78789636 28.89394818 -18 30 C-16.87073305 26.71485977 -15.38365351 23.95743652 -13.5 21.0625 C-11.39701229 17.78232967 -10.16592952 14.73097446 -9 11 C-7.89230141 8.17327861 -6.75246775 5.48909826 -5 3 C-2.25 2 -2.25 2 0 2 C0 1.34 0 0.68 0 0 Z " fill="#A6A6A6" transform="translate(223,153)"/>
<path d="M0 0 C0.99 0 1.98 0 3 0 C1.82028624 5.42668328 -0.33419289 9.40784887 -3.27734375 14.09375 C-5.64663988 18.09092986 -7.6524477 22.24357053 -9.6394043 26.44165039 C-11.78994916 30.89497458 -11.78994916 30.89497458 -14 32 C-12.89061647 25.69403048 -11.06802099 20.62470514 -8 15 C-7.34 15 -6.68 15 -6 15 C-3.77435323 10.93577546 -2.7397295 7.54405263 -2 3 C-1.34 2.67 -0.68 2.34 0 2 C0 1.34 0 0.68 0 0 Z " fill="#979797" transform="translate(309,232)"/>
<path d="M0 0 C2.23910501 2.07440027 3.71457329 4.02707502 5.12109375 6.73046875 C5.49943359 7.45169922 5.87777344 8.17292969 6.26757812 8.91601562 C6.65365234 9.66560547 7.03972656 10.41519531 7.4375 11.1875 C8.01081055 12.28288086 8.01081055 12.28288086 8.59570312 13.40039062 C9.36019076 14.86576676 10.11854466 16.33435987 10.87060547 17.80615234 C11.63408185 19.28920438 12.41491164 20.76343073 13.21142578 22.22900391 C14.21541241 24.11487652 15.1162372 26.05488613 16 28 C15.67 28.99 15.34 29.98 15 31 C14.67 29.68 14.34 28.36 14 27 C13.01 27 12.02 27 11 27 C11 25.02 11 23.04 11 21 C10.38511719 20.91105469 9.77023437 20.82210937 9.13671875 20.73046875 C7 20 7 20 5.76953125 18.36328125 C3.82645085 14.19953754 2.59926916 10.59439692 2 6 C1.36694179 3.98910922 0.70905938 1.98536627 0 0 Z " fill="#7C7C7C" transform="translate(326,215)"/>
<path d="M0 0 C0 11.55 0 23.1 0 35 C-2.08873749 30.82252502 -2.23669725 29.03669747 -2.1953125 24.484375 C-2.18886719 23.23398438 -2.18242187 21.98359375 -2.17578125 20.6953125 C-2.15902344 19.39335937 -2.14226562 18.09140625 -2.125 16.75 C-2.11597656 15.43257812 -2.10695313 14.11515625 -2.09765625 12.7578125 C-2.07408533 9.50502538 -2.04118022 6.25260411 -2 3 C-2.62648438 3.37253906 -3.25296875 3.74507812 -3.8984375 4.12890625 C-4.71570313 4.60199219 -5.53296875 5.07507813 -6.375 5.5625 C-7.59316406 6.27599609 -7.59316406 6.27599609 -8.8359375 7.00390625 C-9.55007813 7.33261719 -10.26421875 7.66132813 -11 8 C-11.66 7.67 -12.32 7.34 -13 7 C-9.41481864 2.87160934 -5.76384243 0 0 0 Z " fill="#D5D5D5" transform="translate(371,185)"/>
<path d="M0 0 C0.66 0.33 1.32 0.66 2 1 C2 1.66 2 2.32 2 3 C3.134375 2.690625 4.26875 2.38125 5.4375 2.0625 C12.82676614 0.38744128 20.4561027 0.32912526 28 0 C28 0.33 28 0.66 28 1 C26.07942708 1.45572917 24.15885417 1.91145833 22.23828125 2.3671875 C19.94742535 2.94395108 19.94742535 2.94395108 17.75 4.09375 C14.00122633 5.32914132 10.55130217 4.97029063 6.6875 4.625 C5.94693359 4.56828125 5.20636719 4.5115625 4.44335938 4.453125 C2.62806257 4.31258589 0.81388403 4.15772905 -1 4 C-0.67 2.68 -0.34 1.36 0 0 Z " fill="#909090" transform="translate(260,329)"/>
<path d="M0 0 C1.32 0 2.64 0 4 0 C2.86522345 3.40432965 1.25130688 5.22040811 -1 8 C-2.8536985 10.86267363 -4.63323862 13.76345521 -6.4140625 16.671875 C-8 19 -8 19 -10 20 C-10.49462092 15.84518429 -10.24199869 14.33610929 -7.75 10.875 C-6.1207726 9.17171681 -4.46358643 7.49338719 -2.75 5.875 C-0.88743617 3.8793959 -0.38104672 2.66732705 0 0 Z " fill="#909090" transform="translate(247,113)"/>
<path d="M0 0 C5.55624884 4.89082982 9.09023351 12.9793693 9.875 20.25 C9.91625 21.4875 9.9575 22.725 10 24 C8.00568695 22.00568695 7.24349201 20.48698402 6 18 C5.484375 17.38125 4.96875 16.7625 4.4375 16.125 C2.63918149 13.46661611 2.47805547 11.14150738 2 8 C1.34 7.34 0.68 6.68 0 6 C-0.125 2.875 -0.125 2.875 0 0 Z " fill="#636363" transform="translate(229,289)"/>
<path d="M0 0 C1.32 0.66 2.64 1.32 4 2 C0.09167665 4.47696337 -3.80784068 6.91589031 -7.875 9.125 C-11.17836931 10.80379376 -11.17836931 10.80379376 -13 14 C-13.8125 12.3125 -13.8125 12.3125 -14 10 C-11.02495167 6.3249403 -8.38820248 4.57525217 -4 3 C-2.63634717 2.04175747 -1.29205831 1.05278825 0 0 Z " fill="#787878" transform="translate(338,201)"/>
<path d="M0 0 C2 3 2 3 2 5 C1.34 5 0.68 5 0 5 C0 5.66 0 6.32 0 7 C-0.66 7 -1.32 7 -2 7 C-2 7.99 -2 8.98 -2 10 C-2.66 10 -3.32 10 -4 10 C-3.79375 10.5775 -3.5875 11.155 -3.375 11.75 C-2.90052256 14.59686462 -3.45290922 15.60200929 -5 18 C-5.98020375 19.0194119 -6.97803008 20.02246356 -8 21 C-8.33 21.66 -8.66 22.32 -9 23 C-9.66 23 -10.32 23 -11 23 C-9.78460141 17.40916649 -7.48759272 13.21973895 -4.46484375 8.37890625 C-2.7863856 5.65309022 -1.3691189 2.89036212 0 0 Z " fill="#949494" transform="translate(143,271)"/>
<path d="M0 0 C4.97951394 0.55006259 8.57443001 2.86699015 12.75 5.4375 C13.43449219 5.84548828 14.11898437 6.25347656 14.82421875 6.67382812 C19.86732076 9.73464152 19.86732076 9.73464152 21 12 C20.29488281 11.70351562 19.58976562 11.40703125 18.86328125 11.1015625 C15.99677739 9.9987602 13.15507468 9.16158606 10.1875 8.375 C9.21167969 8.11460937 8.23585937 7.85421875 7.23046875 7.5859375 C6.49441406 7.39257812 5.75835937 7.19921875 5 7 C5 6.34 5 5.68 5 5 C2.525 4.01 2.525 4.01 0 3 C0 2.01 0 1.02 0 0 Z " fill="#8E8E8E" transform="translate(146,184)"/>
<path d="M0 0 C2.375 0.3125 2.375 0.3125 5 1 C5.66 1.99 6.32 2.98 7 4 C6.3125 6.625 6.3125 6.625 5 9 C4.01 9.33 3.02 9.66 2 10 C0.68 8.02 -0.64 6.04 -2 4 C-1.34 2.68 -0.68 1.36 0 0 Z " fill="#1D1D1D" transform="translate(265,117)"/>
<path d="M0 0 C2.65575614 3.13862089 3.77207194 6.10266311 5 10 C-6.78488271 9.42561076 -18.34602389 7.77328609 -30 6 C-30 5.67 -30 5.34 -30 5 C-22.96137254 5.5153523 -15.94795615 6.1925129 -8.9375 7 C-8.19959229 7.0829834 -7.46168457 7.1659668 -6.70141602 7.25146484 C-3.65754752 7.60973264 -0.91676927 8.02774358 2 9 C1.34 6.03 0.68 3.06 0 0 Z " fill="#C8C8C8" transform="translate(235,323)"/>
<path d="M0 0 C3.25548753 3.02295271 5.68977058 6.20462309 8 10 C8 10.66 8 11.32 8 12 C8.99 11.34 9.98 10.68 11 10 C11.99 10 12.98 10 14 10 C13.67 10.99 13.34 11.98 13 13 C10.3125 13.3125 10.3125 13.3125 7 13 C4.25 10.625 4.25 10.625 2 8 C1.34 7.34 0.68 6.68 0 6 C-0.125 2.875 -0.125 2.875 0 0 Z " fill="#6D6D6D" transform="translate(311,190)"/>
<path d="M0 0 C3.0984718 2.06564787 3.74008348 2.99996141 5.375 6.1875 C7.62059665 10.40567242 10.14745795 14.16944353 13 18 C12.67 18.66 12.34 19.32 12 20 C10.0625 19.3125 10.0625 19.3125 8 18 C7.25 15.375 7.25 15.375 7 13 C6.01 12.67 5.02 12.34 4 12 C1.82023603 8.53802194 0 4.11001503 0 0 Z " fill="#848484" transform="translate(284,148)"/>
<path d="M0 0 C-5.4740365 3.80141424 -10.86637187 7.35619477 -17 10 C-17.99 9.67 -18.98 9.34 -20 9 C-16.33749374 5.33749374 -12.92500697 2.6817097 -8 1 C-6.4221875 0.4121875 -6.4221875 0.4121875 -4.8125 -0.1875 C-2 -1 -2 -1 0 0 Z " fill="#969696" transform="translate(276,387)"/>
<path d="M0 0 C0 0.66 0 1.32 0 2 C-0.99 2.33 -1.98 2.66 -3 3 C-3.99 4.1446875 -3.99 4.1446875 -5 5.3125 C-8.66400666 9.17943626 -13.9326589 10.74336469 -19 12 C-19.66 11.67 -20.32 11.34 -21 11 C-16.375 8 -16.375 8 -13 8 C-13 7.34 -13 6.68 -13 6 C-11.21118264 4.99491199 -9.41885304 3.99607264 -7.625 3 C-6.62726563 2.443125 -5.62953125 1.88625 -4.6015625 1.3125 C-2 0 -2 0 0 0 Z " fill="#838383" transform="translate(319,349)"/>
<path d="M0 0 C3 3.75 3 3.75 3 6 C2.26394531 6.12117188 1.52789062 6.24234375 0.76953125 6.3671875 C-0.20628906 6.53476562 -1.18210937 6.70234375 -2.1875 6.875 C-3.63189453 7.11863281 -3.63189453 7.11863281 -5.10546875 7.3671875 C-7.99189065 7.89920443 -7.99189065 7.89920443 -10.5 9.09375 C-13.53534505 10.19406258 -15.62400974 10.00915545 -18.8125 9.625 C-20.27623047 9.45871094 -20.27623047 9.45871094 -21.76953125 9.2890625 C-22.50558594 9.19367188 -23.24164063 9.09828125 -24 9 C-24 8.67 -24 8.34 -24 8 C-21.14694871 7.49279088 -18.29283186 6.99406366 -15.4375 6.5 C-14.63763672 6.35691406 -13.83777344 6.21382813 -13.01367188 6.06640625 C-8.26475402 5.25230605 -3.81753923 4.84480411 1 5 C0.67 3.35 0.34 1.7 0 0 Z " fill="#B1B1B1" transform="translate(365,313)"/>
<path d="M0 0 C0.99 0.495 0.99 0.495 2 1 C2 1.66 2 2.32 2 3 C2.598125 3.061875 3.19625 3.12375 3.8125 3.1875 C6.91786033 4.34091955 7.51915754 6.10562611 9 9 C9.37125 9.639375 9.7425 10.27875 10.125 10.9375 C11.24560858 13.57893451 11.61372568 16.16732162 12 19 C6.16836223 13.83483511 2.59765862 7.32067428 0 0 Z " fill="#969696" transform="translate(294,183)"/>
<path d="M0 0 C0.33 0.66 0.66 1.32 1 2 C0.33333333 3.33333333 -0.33333333 4.66666667 -1 6 C-1.12375 7.03125 -1.2475 8.0625 -1.375 9.125 C-1.58125 10.07375 -1.7875 11.0225 -2 12 C-2.63808594 12.29648438 -3.27617187 12.59296875 -3.93359375 12.8984375 C-6.1722002 13.83090954 -6.1722002 13.83090954 -7.01171875 16.09375 C-7.23472656 16.8878125 -7.45773438 17.681875 -7.6875 18.5 C-8.98837209 22.97674419 -8.98837209 22.97674419 -10 25 C-10.66 25 -11.32 25 -12 25 C-10.42015972 19.45129266 -8.46510568 14.80293947 -5.2734375 9.99609375 C-3.23320868 6.79806637 -1.64630776 3.41456425 0 0 Z " fill="#BCBCBC" transform="translate(160,238)"/>
<path d="M0 0 C0.70125 0.78375 1.4025 1.5675 2.125 2.375 C5.15102555 5.13789289 7.1739895 5.77893282 11 7 C13.1875 8.9375 13.1875 8.9375 15 11 C15.86625 11.86625 15.86625 11.86625 16.75 12.75 C17.1625 13.1625 17.575 13.575 18 14 C14.46176973 12.67788548 11.33805196 11.10621095 8.125 9.125 C4.11959378 6.67858423 0.08576192 4.3093437 -4 2 C-3.34 1.67 -2.68 1.34 -2 1 C-1.34 1.33 -0.68 1.66 0 2 C0 1.34 0 0.68 0 0 Z " fill="#9F9F9F" transform="translate(342,160)"/>
<path d="M0 0 C0.33 0.66 0.66 1.32 1 2 C0.33496094 3.69238281 0.33496094 3.69238281 -0.765625 5.703125 C-1.16136719 6.43660156 -1.55710938 7.17007812 -1.96484375 7.92578125 C-2.38894531 8.69277344 -2.81304687 9.45976562 -3.25 10.25 C-4.06827379 11.75490101 -4.88599235 13.26010407 -5.703125 14.765625 C-6.09564453 15.48427734 -6.48816406 16.20292969 -6.89257812 16.94335938 C-8.32265846 19.59922286 -9.67184587 22.29194547 -11 25 C-11.33 25 -11.66 25 -12 25 C-12.3125 21.8125 -12.3125 21.8125 -12 18 C-10.3447095 16.32203429 -8.67627257 14.65700507 -7 13 C-5.65119191 10.77459709 -4.37921721 8.50083341 -3.1875 6.1875 C-2.58292969 5.02605469 -1.97835937 3.86460937 -1.35546875 2.66796875 C-0.90816406 1.78753906 -0.46085938 0.90710938 0 0 Z " fill="#DADADA" transform="translate(155,271)"/>
<path d="M0 0 C3.36704285 -0.2295711 5.41370268 -0.33943529 8.375 1.375 C8.91125 1.91125 9.4475 2.4475 10 3 C10 3.66 10 4.32 10 5 C11.65 5 13.3 5 15 5 C15 4.34 15 3.68 15 3 C16.32 3.33 17.64 3.66 19 4 C17.4375 5.5625 17.4375 5.5625 15 7 C9.00183034 7 4.64791055 4.5734585 0 1 C0 0.67 0 0.34 0 0 Z " fill="#6C6C6C" transform="translate(237,394)"/>
<path d="M0 0 C0 0.33 0 0.66 0 1 C-1.09699219 1.20496094 -2.19398438 1.40992188 -3.32421875 1.62109375 C-4.77864887 1.89321293 -6.23307578 2.16534925 -7.6875 2.4375 C-8.40873047 2.57220703 -9.12996094 2.70691406 -9.87304688 2.84570312 C-10.57880859 2.97783203 -11.28457031 3.10996094 -12.01171875 3.24609375 C-12.70225342 3.3742749 -13.39278809 3.50245605 -14.10424805 3.63452148 C-15.6590066 3.93426051 -17.20598631 4.2740878 -18.75 4.625 C-22.31502122 5.2191702 -25.44190562 4.54276016 -29 4 C-29 3.67 -29 3.34 -29 3 C-19.39681265 1.27377261 -9.78784955 -0.26453647 0 0 Z " fill="#A6A6A6" transform="translate(317,325)"/>
<path d="M0 0 C1.33333333 0.66666667 2.66666667 1.33333333 4 2 C4.680625 2.33 5.36125 2.66 6.0625 3 C8 4 8 4 11 6 C11 6.99 11 7.98 11 9 C12.65 9 14.3 9 16 9 C16 9.99 16 10.98 16 12 C11.23448987 10.62394084 7.2751447 8.53221934 3.125 5.875 C2.53203125 5.50246094 1.9390625 5.12992188 1.328125 4.74609375 C-0.1181343 3.83635 -1.55958046 2.91896202 -3 2 C-2.01 1.34 -1.02 0.68 0 0 Z " fill="#848484" transform="translate(282,126)"/>
<path d="M0 0 C1 2 1 2 0.4765625 4.05859375 C0.19554687 4.84363281 -0.08546875 5.62867188 -0.375 6.4375 C-0.65085937 7.21996094 -0.92671875 8.00242187 -1.2109375 8.80859375 C-1.47132813 9.53175781 -1.73171875 10.25492187 -2 11 C-2.33 11.99 -2.66 12.98 -3 14 C-5.0625 14.6875 -5.0625 14.6875 -7 15 C-7 16.65 -7 18.3 -7 20 C-7.99 20.33 -8.98 20.66 -10 21 C-9.37524528 18.15823376 -8.4941563 15.74125036 -7.1875 13.14453125 C-6.83429688 12.44005859 -6.48109375 11.73558594 -6.1171875 11.00976562 C-5.74851562 10.28466797 -5.37984375 9.55957031 -5 8.8125 C-4.63132812 8.07580078 -4.26265625 7.33910156 -3.8828125 6.58007812 C-1.14050904 1.14050904 -1.14050904 1.14050904 0 0 Z " fill="#999999" transform="translate(265,297)"/>
<path d="M0 0 C4.84693871 1.41861621 8.81382449 3.20921633 13 6 C13.9375 8.25 13.9375 8.25 14 10 C9.39571066 8.68448876 5.81679612 6.90803514 2 4 C2 3.34 2 2.68 2 2 C1.34 2 0.68 2 0 2 C0 1.34 0 0.68 0 0 Z " fill="#545454" transform="translate(134,187)"/>
<path d="M0 0 C2.91687906 0.61096791 5.13415334 1.51314558 7.671875 3.06640625 C8.33574219 3.46923828 8.99960937 3.87207031 9.68359375 4.28710938 C10.36550781 4.70798828 11.04742187 5.12886719 11.75 5.5625 C12.44738281 5.98724609 13.14476562 6.41199219 13.86328125 6.84960938 C15.57835717 7.89510086 17.28956473 8.94693351 19 10 C17 11 17 11 13.6875 10.25 C10.37956685 9.12866673 7.77775543 8.10436017 5 6 C5 5.01 5 4.02 5 3 C2.525 2.01 2.525 2.01 0 1 C0 0.67 0 0.34 0 0 Z " fill="#A7A7A7" transform="translate(352,157)"/>
<path d="M0 0 C1.70880502 1.62743335 3.16079849 3.21868594 4.5625 5.125 C5.87454862 7.11965942 5.87454862 7.11965942 8 8 C9.54828113 11.78468721 10.24012841 14.91781703 10 19 C6.83923862 17.41961931 5.92943899 14.24828204 4.4375 11.1875 C4.12103516 10.55779297 3.80457031 9.92808594 3.47851562 9.27929688 C1.97466992 6.23648381 0.61636877 3.35203292 0 0 Z " fill="#929292" transform="translate(220,295)"/>
<path d="M0 0 C0.33 0.66 0.66 1.32 1 2 C3.54024004 2.47574438 6.00051464 2.84007547 8.5625 3.125 C9.27341797 3.21136719 9.98433594 3.29773438 10.71679688 3.38671875 C12.47689312 3.59934783 14.23834164 3.80072697 16 4 C16 4.33 16 4.66 16 5 C6.20152364 4.55883637 -3.35399262 3.91433287 -13 2 C-13 1.67 -13 1.34 -13 1 C-11.20843648 0.83222817 -9.4167455 0.66581706 -7.625 0.5 C-6.62726563 0.4071875 -5.62953125 0.314375 -4.6015625 0.21875 C-2 0 -2 0 0 0 Z " fill="#B8B8B8" transform="translate(220,338)"/>
<path d="M0 0 C2.50859358 3.21316771 4.6538055 6.56739884 6.75 10.0625 C7.38421875 11.10535156 8.0184375 12.14820313 8.671875 13.22265625 C10 16 10 16 9 19 C8.38125 18.030625 7.7625 17.06125 7.125 16.0625 C5.34321154 12.97164638 5.34321154 12.97164638 3 12 C2.66666667 10.66666667 2.33333333 9.33333333 2 8 C1.34 7.67 0.68 7.34 0 7 C0 4.69 0 2.38 0 0 Z " fill="#979797" transform="translate(209,251)"/>
<path d="M0 0 C0.66 0.33 1.32 0.66 2 1 C2 1.99 2 2.98 2 4 C2.556875 3.773125 3.11375 3.54625 3.6875 3.3125 C6.96049601 2.87020324 8.41983352 4.06487514 11 6 C11 6.66 11 7.32 11 8 C12.45833358 9.62514468 12.45833358 9.62514468 14 11 C10.25912846 9.58010715 6.76931806 7.90233408 3.25 6 C2.28578125 5.484375 1.3215625 4.96875 0.328125 4.4375 C-2 3 -2 3 -3 1 C-2.01 0.67 -1.02 0.34 0 0 Z " fill="#8D8D8D" transform="translate(301,137)"/>
<path d="M0 0 C0 0.66 0 1.32 0 2 C-0.99 2 -1.98 2 -3 2 C-3 2.99 -3 3.98 -3 5 C-6.76737643 7.96823597 -10.29761275 8.53898164 -15 9 C-11.6214602 5.03388806 -5.46055995 0 0 0 Z " fill="#7D7D7D" transform="translate(286,368)"/>
<path d="M0 0 C0.66 0.33 1.32 0.66 2 1 C-1.11741192 2.86715818 -4.2450458 4.71645661 -7.375 6.5625 C-8.26445312 7.09552734 -9.15390625 7.62855469 -10.0703125 8.17773438 C-10.92109375 8.67724609 -11.771875 9.17675781 -12.6484375 9.69140625 C-13.43395996 10.15748291 -14.21948242 10.62355957 -15.02880859 11.10375977 C-15.67930176 11.39951904 -16.32979492 11.69527832 -17 12 C-17.66 11.67 -18.32 11.34 -19 11 C-15.09494469 7.32001992 -12.41638118 4.81245718 -7 4 C-5.75187552 3.32563209 -4.52344581 2.61405146 -3.3125 1.875 C-1.6728125 0.946875 -1.6728125 0.946875 0 0 Z " fill="#AAAAAA" transform="translate(307,367)"/>
<path d="M0 0 C1.96259262 0.39611961 3.92007661 0.81761694 5.875 1.25 C7.51082031 1.59804688 7.51082031 1.59804688 9.1796875 1.953125 C12 3 12 3 13.15625 4.96875 C13.4346875 5.6390625 13.713125 6.309375 14 7 C15.69727225 8.31210005 15.69727225 8.31210005 17.625 9.25 C18.73875 9.8275 19.8525 10.405 21 11 C20.01 11.495 20.01 11.495 19 12 C17.02880859 11.11962891 17.02880859 11.11962891 14.6484375 9.7265625 C13.79765625 9.2315625 12.946875 8.7365625 12.0703125 8.2265625 C11.18085938 7.69804687 10.29140625 7.16953125 9.375 6.625 C8.02921875 5.84382813 8.02921875 5.84382813 6.65625 5.046875 C1.80811685 2.20283336 1.80811685 2.20283336 0 1 C0 0.67 0 0.34 0 0 Z " fill="#AFAFAF" transform="translate(176,359)"/>
<path d="M0 0 C1.19046765 3.57140295 0.77683729 4.06081699 -0.8125 7.3125 C-2.46957582 10.82160174 -3.85643221 14.2834047 -5 18 C-5.99 18 -6.98 18 -8 18 C-7.39733215 13.49272353 -5.63400206 10.1412037 -3.4375 6.1875 C-2.9434668 5.2912793 -2.9434668 5.2912793 -2.43945312 4.37695312 C-1.63226733 2.91466002 -0.81695083 1.4568601 0 0 Z " fill="#ACACAC" transform="translate(169,220)"/>
<path d="M0 0 C0 0.66 0 1.32 0 2 C-0.99 2.33 -1.98 2.66 -3 3 C-3.763125 3.825 -4.52625 4.65 -5.3125 5.5 C-8.32775713 8.30489036 -9.96692616 8.71862276 -14 9 C-12.68786941 5.06360824 -11.17198478 4.71346403 -7.5625 2.8125 C-6.07943359 2.01779297 -6.07943359 2.01779297 -4.56640625 1.20703125 C-2 0 -2 0 0 0 Z " fill="#727272" transform="translate(135,164)"/>
<path d="M0 0 C0 0.66 0 1.32 0 2 C-0.66 2 -1.32 2 -2 2 C-2.33 2.99 -2.66 3.98 -3 5 C-6.71316711 7.8644432 -9.36574638 8.32332002 -14 8 C-11.80106503 4.70159754 -10.49141855 4.00238717 -7 2.3125 C-6.113125 1.87550781 -5.22625 1.43851563 -4.3125 0.98828125 C-2 0 -2 0 0 0 Z " fill="#757575" transform="translate(149,156)"/>
<path d="M0 0 C0.33 1.32 0.66 2.64 1 4 C0.34 4 -0.32 4 -1 4 C-1.4640625 5.85625 -1.4640625 5.85625 -1.9375 7.75 C-2.46875 9.875 -2.46875 9.875 -3 12 C-3.14566406 12.68578125 -3.29132813 13.3715625 -3.44140625 14.078125 C-4 16 -4 16 -6 19 C-6.66 19 -7.32 19 -8 19 C-6.65346233 11.86335037 -3.6492869 6.24280526 0 0 Z " fill="#7E7E7E" transform="translate(305,221)"/>
<path d="M0 0 C3.25548753 3.02295271 5.68977058 6.20462309 8 10 C8 10.66 8 11.32 8 12 C7.01 12.33 6.02 12.66 5 13 C-0.74031891 4.738041 -0.74031891 4.738041 0 0 Z " fill="#727272" transform="translate(275,134)"/>
<path d="M0 0 C5.17935061 1.46828943 9.34373412 3.81491263 13.875 6.625 C14.90753906 7.25535156 14.90753906 7.25535156 15.9609375 7.8984375 C17.64391658 8.92692472 19.32242532 9.962721 21 11 C19 12 19 12 16.125 11.125 C15.09375 10.75375 14.0625 10.3825 13 10 C12.236875 9.855625 11.47375 9.71125 10.6875 9.5625 C10.130625 9.376875 9.57375 9.19125 9 9 C8.67 8.01 8.34 7.02 8 6 C6.13943559 4.58721572 6.13943559 4.58721572 3.9375 3.375 C2.61158352 2.60601505 1.29496012 1.82004308 0 1 C0 0.67 0 0.34 0 0 Z " fill="#B1B1B1" transform="translate(295,124)"/>
<path d="M0 0 C0.66 0.33 1.32 0.66 2 1 C0.7934375 1.37125 0.7934375 1.37125 -0.4375 1.75 C-1.283125 2.1625 -2.12875 2.575 -3 3 C-3.69535873 5.03028196 -3.69535873 5.03028196 -4 7 C-5.216875 7.28875 -6.43375 7.5775 -7.6875 7.875 C-10.91814648 8.67835792 -13.94320935 9.66265409 -17 11 C-13.84396286 7.49415579 -10.52064805 5.41005398 -6.375 3.1875 C-5.22773438 2.56230469 -4.08046875 1.93710938 -2.8984375 1.29296875 C-1.46371094 0.65294922 -1.46371094 0.65294922 0 0 Z " fill="#A7A7A7" transform="translate(202,124)"/>
<path d="M0 0 C2.87526069 0.1416533 5.75013536 0.28818532 8.625 0.4375 C9.43324219 0.47681641 10.24148437 0.51613281 11.07421875 0.55664062 C15.45150865 0.78796082 19.68547281 1.16920917 24 2 C24 2.33 24 2.66 24 3 C15.585 3.495 15.585 3.495 7 4 C6.67 3.34 6.34 2.68 6 2 C2.97065509 1.34227572 2.97065509 1.34227572 0 1 C0 0.67 0 0.34 0 0 Z " fill="#A0A0A0" transform="translate(181,325)"/>
<path d="M0 0 C0.85851562 0.55300781 0.85851562 0.55300781 1.734375 1.1171875 C-2.16664888 3.90363313 -5.65049388 5.79857861 -10.265625 7.1171875 C-10.265625 5.7971875 -10.265625 4.4771875 -10.265625 3.1171875 C-9.02678181 2.38951747 -7.77394159 1.68563935 -6.515625 0.9921875 C-5.81953125 0.59773437 -5.1234375 0.20328125 -4.40625 -0.203125 C-2.265625 -0.8828125 -2.265625 -0.8828125 0 0 Z " fill="#6B6B6B" transform="translate(147.265625,167.8828125)"/>
<path d="M0 0 C4.04301175 1.48518799 7.61146256 3.42877998 11.3125 5.625 C12.38113281 6.25664062 13.44976562 6.88828125 14.55078125 7.5390625 C15.76314453 8.26222656 15.76314453 8.26222656 17 9 C15.02 9.99 15.02 9.99 13 11 C12.01 10.34 11.02 9.68 10 9 C10 8.01 10 7.02 10 6 C9.21625 6.020625 8.4325 6.04125 7.625 6.0625 C5 6 5 6 3 5 C3 4.01 3 3.02 3 2 C2.01 1.67 1.02 1.34 0 1 C0 0.67 0 0.34 0 0 Z " fill="#8B8B8B" transform="translate(215,369)"/>
<path d="M0 0 C3.0835768 0.63183093 5.41377992 1.67188344 8.109375 3.28515625 C8.86347656 3.73310547 9.61757812 4.18105469 10.39453125 4.64257812 C11.56048828 5.34543945 11.56048828 5.34543945 12.75 6.0625 C13.93916016 6.77116211 13.93916016 6.77116211 15.15234375 7.49414062 C17.1043111 8.65826573 19.05335805 9.82699902 21 11 C17.79937313 12.60031344 15.27728194 11.03173691 12 10 C12 9.01 12 8.02 12 7 C11.319375 6.7525 10.63875 6.505 9.9375 6.25 C6.43134917 4.75802092 3.28379632 2.93164489 0 1 C0 0.67 0 0.34 0 0 Z " fill="#BDBDBD" transform="translate(180,349)"/>
<path d="M0 0 C0 0.33 0 0.66 0 1 C-5.94 1.495 -5.94 1.495 -12 2 C-12 2.66 -12 3.32 -12 4 C-15.63 3.67 -19.26 3.34 -23 3 C-23 2.67 -23 2.34 -23 2 C-15.2441657 0.29005228 -7.93396732 -0.24923458 0 0 Z " fill="#ABABAB" transform="translate(341,322)"/>
<path d="M0 0 C1 3 1 3 -0.43359375 6.13671875 C-1.09135973 7.3260128 -1.75977815 8.50946371 -2.4375 9.6875 C-2.77587891 10.29400391 -3.11425781 10.90050781 -3.46289062 11.52539062 C-4.29957915 13.0220025 -5.14862831 14.51169189 -6 16 C-7.44570695 13.1085861 -6.47676262 10.97076327 -5.671875 7.96875 C-4.51062676 4.56602261 -2.49709324 2.49709324 0 0 Z " fill="#838383" transform="translate(172,237)"/>
<path d="M0 0 C0.66 1.32 1.32 2.64 2 4 C1.01 4 0.02 4 -1 4 C-1.2475 4.680625 -1.495 5.36125 -1.75 6.0625 C-3.24197908 9.56865083 -5.06835511 12.71620368 -7 16 C-8 14 -8 14 -7.1875 11.125 C-5.38396966 6.37886751 -3.74850408 3.49860381 0 0 Z " fill="#A6A6A6" transform="translate(181,221)"/>
<path d="M0 0 C4.12146058 -0.32325181 6.3675734 -0.39022067 9.9375 1.8125 C12 4 12 4 12 7 C7.39104317 5.68315519 3.85859765 3.84801255 0 1 C0 0.67 0 0.34 0 0 Z " fill="#7E7E7E" transform="translate(216,382)"/>
<path d="M0 0 C0.99 0.33 1.98 0.66 3 1 C3.33333333 2.33333333 3.66666667 3.66666667 4 5 C4.99 5.33 5.98 5.66 7 6 C8.75 8.875 8.75 8.875 10 12 C9.67 12.99 9.34 13.98 9 15 C6 11.25 6 11.25 6 9 C5.01 8.67 4.02 8.34 3 8 C0 2.77777778 0 2.77777778 0 0 Z " fill="#5A5A5A" transform="translate(230,314)"/>
<path d="M0 0 C0.33 0.66 0.66 1.32 1 2 C0.01873444 4.00925805 -0.9849911 6.00757511 -2 8 C-2.77068925 10.31671045 -3.38503124 12.63473553 -4 15 C-4.66 15 -5.32 15 -6 15 C-6 15.66 -6 16.32 -6 17 C-6.66 17 -7.32 17 -8 17 C-6.3341708 10.83643195 -3.12194714 5.51740344 0 0 Z " fill="#979797" transform="translate(274,280)"/>
<path d="M0 0 C0.99 0.66 1.98 1.32 3 2 C-1.02167317 4.96837781 -4.00088076 6.52389341 -9 7 C-8 4 -8 4 -6.15234375 2.83203125 C-5.42144531 2.49558594 -4.69054687 2.15914063 -3.9375 1.8125 C-3.20402344 1.46832031 -2.47054687 1.12414062 -1.71484375 0.76953125 C-1.14894531 0.51558594 -0.58304688 0.26164062 0 0 Z " fill="#545454" transform="translate(225,121)"/>
<path d="M0 0 C4.23039958 1.74192924 8.1273638 3.53559514 12 6 C8.25 8 8.25 8 6 8 C5.525625 7.360625 5.05125 6.72125 4.5625 6.0625 C3.0908635 3.71627037 3.0908635 3.71627037 0 3 C0 2.01 0 1.02 0 0 Z " fill="#6C6C6C" transform="translate(255,101)"/>
<path d="M0 0 C1.32 0.66 2.64 1.32 4 2 C4 2.66 4 3.32 4 4 C4.99 3.67 5.98 3.34 7 3 C7 3.99 7 4.98 7 6 C7.99 5.67 8.98 5.34 10 5 C10 5.99 10 6.98 10 8 C5.1725201 6.58707905 1.2837641 4.57025846 -3 2 C-2.01 1.34 -1.02 0.68 0 0 Z " fill="#7C7C7C" transform="translate(139,335)"/>
<path d="M0 0 C2.47375854 0.96201721 4.85268665 1.92002989 7.1875 3.1875 C8.0846875 3.5896875 8.0846875 3.5896875 9 4 C9.66 3.67 10.32 3.34 11 3 C13 4.3125 13 4.3125 15 6 C15 6.99 15 7.98 15 9 C11.32305352 7.62859834 8.04681411 5.96304199 4.6875 3.9375 C3.80449219 3.41027344 2.92148438 2.88304687 2.01171875 2.33984375 C1.34785156 1.89769531 0.68398437 1.45554688 0 1 C0 0.67 0 0.34 0 0 Z " fill="#9E9E9E" transform="translate(155,201)"/>
<path d="M0 0 C0.763125 0.20625 1.52625 0.4125 2.3125 0.625 C0.03504211 3.11482535 -2.31085238 4.72868997 -5.25 6.375 C-6.03503906 6.82359375 -6.82007813 7.2721875 -7.62890625 7.734375 C-8.30824219 8.02828125 -8.98757813 8.3221875 -9.6875 8.625 C-10.3475 8.295 -11.0075 7.965 -11.6875 7.625 C-10.883125 7.191875 -10.07875 6.75875 -9.25 6.3125 C-6.40903646 4.82025998 -6.40903646 4.82025998 -5.6875 1.625 C-2.6875 -0.375 -2.6875 -0.375 0 0 Z " fill="#9A9A9A" transform="translate(320.6875,358.375)"/>
<path d="M0 0 C1 2 1 2 0.22265625 4.3828125 C-0.16019531 5.28773438 -0.54304687 6.19265625 -0.9375 7.125 C-1.31777344 8.03507812 -1.69804687 8.94515625 -2.08984375 9.8828125 C-2.54037109 10.93082031 -2.54037109 10.93082031 -3 12 C-4.9375 11.625 -4.9375 11.625 -7 11 C-7.33 10.34 -7.66 9.68 -8 9 C-7.34 8.34 -6.68 7.68 -6 7 C-5.34 7.33 -4.68 7.66 -4 8 C-2.68 5.36 -1.36 2.72 0 0 Z " fill="#777777" transform="translate(254,318)"/>
<path d="M0 0 C0.33 0 0.66 0 1 0 C1.67081836 6.43985624 -0.24569762 9.83783423 -4 15 C-4.66 14.67 -5.32 14.34 -6 14 C-5.54625 13.154375 -5.0925 12.30875 -4.625 11.4375 C-3.00078567 8.00166199 -2.0037157 4.65639292 -1 1 C-0.67 0.67 -0.34 0.34 0 0 Z " fill="#4B4B4B" transform="translate(277,274)"/>
<path d="M0 0 C2.69628591 0.98863817 3.79691111 1.62588888 5.1875 4.1875 C6.12754793 7.44151205 6.60462793 10.6393374 7 14 C4.66714622 11.86099367 3.2131241 9.83344647 1.8125 7 C1.46832031 6.319375 1.12414062 5.63875 0.76953125 4.9375 C0 3 0 3 0 0 Z " fill="#878787" transform="translate(330,245)"/>
<path d="M0 0 C1.4391134 0.28359887 2.87625518 0.57721399 4.3125 0.875 C5.11300781 1.03742188 5.91351563 1.19984375 6.73828125 1.3671875 C9 2 9 2 12 4 C12 4.99 12 5.98 12 7 C8.80862651 6.36747553 6.48762632 5.24396936 3.75 3.5 C3.04359375 3.0565625 2.3371875 2.613125 1.609375 2.15625 C1.07828125 1.7746875 0.5471875 1.393125 0 1 C0 0.67 0 0.34 0 0 Z " fill="#7C7C7C" transform="translate(326,154)"/>
<path d="M0 0 C3.63 0.33 7.26 0.66 11 1 C10.01 2.485 10.01 2.485 9 4 C9.99 4.99 10.98 5.98 12 7 C7.69235185 5.43358249 3.93828536 3.31663844 0 1 C0 0.67 0 0.34 0 0 Z " fill="#DFDFDF" transform="translate(149,331)"/>
<path d="M0 0 C3.40458262 3.89095157 6.24177968 8.11365765 8 13 C7.67 13.66 7.34 14.32 7 15 C6.5875 14.236875 6.175 13.47375 5.75 12.6875 C4.21755318 9.92358655 4.21755318 9.92358655 1.8125 8.625 C0 7 0 7 -0.25 3.3125 C-0.1675 2.219375 -0.085 1.12625 0 0 Z " fill="#979797" transform="translate(201,236)"/>
<path d="M0 0 C0.66 0.33 1.32 0.66 2 1 C-4.89715536 7.86214442 -4.89715536 7.86214442 -9.5 8.4375 C-10.325 8.293125 -11.15 8.14875 -12 8 C-9.72254211 5.51017465 -7.37664762 3.89631003 -4.4375 2.25 C-3.65246094 1.80140625 -2.86742187 1.3528125 -2.05859375 0.890625 C-1.37925781 0.59671875 -0.69992188 0.3028125 0 0 Z " fill="#9C9C9C" transform="translate(221,113)"/>
<path d="M0 0 C4.30764815 1.56641751 8.06171464 3.68336156 12 6 C9.31596792 7.34201604 8.2569869 6.70405525 5.4375 5.8125 C4.22900391 5.45091797 4.22900391 5.45091797 2.99609375 5.08203125 C1 4 1 4 0.22265625 1.88671875 C0.14917969 1.26410156 0.07570312 0.64148438 0 0 Z " fill="#808080" transform="translate(201,361)"/>
<path d="M0 0 C0.61875 0.66 1.2375 1.32 1.875 2 C3.75637427 4.2284549 3.75637427 4.2284549 6 4 C6.66 7.63 7.32 11.26 8 15 C3.62638291 10.62638291 1.8104319 5.84908768 0 0 Z " fill="#A0A0A0" transform="translate(183,225)"/>
<path d="M0 0 C2.95409701 1.37154504 5.44008376 2.98863724 8 5 C7.01 5.99 6.02 6.98 5 8 C4.67 7.34 4.34 6.68 4 6 C2.34948712 4.88365848 2.34948712 4.88365848 0.4375 3.875 C-0.696875 3.25625 -1.83125 2.6375 -3 2 C-2.01 1.34 -1.02 0.68 0 0 Z " fill="#888888" transform="translate(129,329)"/>
<path d="M0 0 C2.375 0.9375 2.375 0.9375 5 3 C6.11888966 5.93708535 6.75033815 8.86733827 7 12 C6.67 12.66 6.34 13.32 6 14 C4.9923048 12.2335343 3.99408286 10.46166177 3 8.6875 C2.443125 7.70136719 1.88625 6.71523438 1.3125 5.69921875 C0 3 0 3 0 0 Z " fill="#969696" transform="translate(349,282)"/>
<path d="M0 0 C0.33 0.66 0.66 1.32 1 2 C1.99 2 2.98 2 4 2 C4 2.66 4 3.32 4 4 C4.66 4 5.32 4 6 4 C6.66 6.64 7.32 9.28 8 12 C7.34 12 6.68 12 6 12 C4.4921875 10.13671875 4.4921875 10.13671875 2.875 7.6875 C2.33617187 6.88699219 1.79734375 6.08648437 1.2421875 5.26171875 C0 3 0 3 0 0 Z " fill="#949494" transform="translate(255,122)"/>
<path d="M0 0 C1 3 1 3 0.00390625 5.26171875 C-0.47175781 6.06222656 -0.94742187 6.86273438 -1.4375 7.6875 C-1.91058594 8.49574219 -2.38367188 9.30398438 -2.87109375 10.13671875 C-3.24363281 10.75160156 -3.61617188 11.36648438 -4 12 C-4.33 12 -4.66 12 -5 12 C-5.35338623 9.03155565 -5.5417682 6.84401782 -3.88671875 4.265625 C-2.64496832 2.79651181 -1.32662082 1.39295186 0 0 Z " fill="#8E8E8E" transform="translate(294,264)"/>
<path d="M0 0 C0.66 0 1.32 0 2 0 C2.33 1.32 2.66 2.64 3 4 C2.01 4.33 1.02 4.66 0 5 C0 6.32 0 7.64 0 9 C-1.65 9.66 -3.3 10.32 -5 11 C-3.55049545 7.2089881 -1.84827434 3.6125362 0 0 Z " fill="#868686" transform="translate(227,126)"/>
<path d="M0 0 C0.66 0 1.32 0 2 0 C1.57576756 1.46224799 1.13509755 2.91973412 0.6875 4.375 C0.44386719 5.18710938 0.20023438 5.99921875 -0.05078125 6.8359375 C-1 9 -1 9 -4 11 C-4.35858439 7.14521782 -4.2754818 5.42240542 -2.125 2.125 C-1.42375 1.42375 -0.7225 0.7225 0 0 Z " fill="#5B5B5B" transform="translate(241,122)"/>
<path d="M0 0 C2.64 0.33 5.28 0.66 8 1 C8.103125 1.639375 8.20625 2.27875 8.3125 2.9375 C8.6528125 3.9584375 8.6528125 3.9584375 9 5 C9.99 5.33 10.98 5.66 12 6 C11.01 6.495 11.01 6.495 10 7 C7.87109375 6.07421875 7.87109375 6.07421875 5.4375 4.6875 C4.63183594 4.23761719 3.82617188 3.78773438 2.99609375 3.32421875 C1 2 1 2 0 0 Z " fill="#A1A1A1" transform="translate(197,371)"/>
<path d="M0 0 C3.21852831 0.63065757 5.50801069 1.78020695 8.25 3.5625 C8.95640625 4.01753906 9.6628125 4.47257812 10.390625 4.94140625 C11.18726563 5.46541016 11.18726563 5.46541016 12 6 C10 7 10 7 6.5625 6.375 C2.58121507 4.83836371 1.70379427 3.8084813 0 0 Z " fill="#989898" transform="translate(161,338)"/>
<path d="M0 0 C3.28698449 3.28698449 4.93295361 5.86590721 7 10 C6.67 10.99 6.34 11.98 6 13 C6 12.34 6 11.68 6 11 C4.68 10.67 3.36 10.34 2 10 C1.34 6.7 0.68 3.4 0 0 Z " fill="#969696" transform="translate(359,279)"/>
<path d="M0 0 C0.66 0.66 1.32 1.32 2 2 C0.6970768 4.906521 -0.70873381 6.80835408 -3 9 C-3.33 9.66 -3.66 10.32 -4 11 C-4.66 11 -5.32 11 -6 11 C-4.88059018 6.14922412 -3.8665284 3.222107 0 0 Z " fill="#6B6B6B" transform="translate(138,283)"/>
<path d="M0 0 C0.66 1.32 1.32 2.64 2 4 C1.360625 4.433125 0.72125 4.86625 0.0625 5.3125 C-2.26746003 6.91239177 -2.26746003 6.91239177 -3 10 C-3.99 10.33 -4.98 10.66 -6 11 C-4.54955729 6.89041233 -2.48889248 3.56741255 0 0 Z " fill="#8B8B8B" transform="translate(194,179)"/>
<path d="M0 0 C0.99 0.33 1.98 0.66 3 1 C2.01 1.66 1.02 2.32 0 3 C-0.33 3.99 -0.66 4.98 -1 6 C-3.5625 7.1875 -3.5625 7.1875 -6 8 C-6 7.34 -6 6.68 -6 6 C-6.99 6 -7.98 6 -9 6 C-8.2575 5.566875 -7.515 5.13375 -6.75 4.6875 C-4.0240513 3.1018859 -4.0240513 3.1018859 -1.875 1.25 C-0.946875 0.63125 -0.946875 0.63125 0 0 Z " fill="#878787" transform="translate(158,149)"/>
<path d="M0 0 C4.61513112 1.31860889 8.09897612 3.21355437 12 6 C10.02 6.99 10.02 6.99 8 8 C7.01 7.34 6.02 6.68 5 6 C5 5.01 5 4.02 5 3 C2.525 2.01 2.525 2.01 0 1 C0 0.67 0 0.34 0 0 Z " fill="#9B9B9B" transform="translate(316,136)"/>
<path d="M0 0 C4.30764815 1.56641751 8.06171464 3.68336156 12 6 C11.01 6.495 11.01 6.495 10 7 C8.66666667 6.33333333 7.33333333 5.66666667 6 5 C4.00889599 4.61709538 2.00899487 4.27395385 0 4 C0 2.68 0 1.36 0 0 Z " fill="#999999" transform="translate(283,117)"/>
<path d="M0 0 C-0.66 0 -1.32 0 -2 0 C-2.33 1.32 -2.66 2.64 -3 4 C-5.97 4.66 -8.94 5.32 -12 6 C-9.19552144 1.79328216 -5.23746854 -1.74582285 0 0 Z " fill="#9D9D9D" transform="translate(345,335)"/>
<path d="M0 0 C1 3 1 3 0.00390625 5.26171875 C-0.47175781 6.06222656 -0.94742187 6.86273438 -1.4375 7.6875 C-2.14712891 8.89986328 -2.14712891 8.89986328 -2.87109375 10.13671875 C-3.24363281 10.75160156 -3.61617188 11.36648438 -4 12 C-4.66 10.68 -5.32 9.36 -6 8 C-4.73046875 6.50260417 -3.4609375 5.00520833 -2.19140625 3.5078125 C-0.9121848 1.99405921 -0.9121848 1.99405921 0 0 Z " fill="#909090" transform="translate(286,279)"/>
<path d="M0 0 C3.89539223 2.59692816 4.91712884 4.83425768 7 9 C6.67 9.66 6.34 10.32 6 11 C5.67 10.01 5.34 9.02 5 8 C4.01 8.33 3.02 8.66 2 9 C1.34 6.03 0.68 3.06 0 0 Z " fill="#949494" transform="translate(304,179)"/>
<path d="M0 0 C0.598125 0.639375 1.19625 1.27875 1.8125 1.9375 C3.90810337 4.20310389 3.90810337 4.20310389 7 5 C7.33 5.99 7.66 6.98 8 8 C7.01 9.485 7.01 9.485 6 11 C4.9944239 9.54550599 3.99569565 8.08627557 3 6.625 C2.443125 5.81289062 1.88625 5.00078125 1.3125 4.1640625 C0 2 0 2 0 0 Z " fill="#989898" transform="translate(267,141)"/>
<path d="M0 0 C-1.95245185 1.19714555 -3.91214997 2.38248074 -5.875 3.5625 C-6.96554688 4.22378906 -8.05609375 4.88507813 -9.1796875 5.56640625 C-10.57574219 6.27603516 -10.57574219 6.27603516 -12 7 C-12.66 6.67 -13.32 6.34 -14 6 C-13.195625 5.566875 -12.39125 5.13375 -11.5625 4.6875 C-8.72153646 3.19525998 -8.72153646 3.19525998 -8 0 C-2.25 -1.125 -2.25 -1.125 0 0 Z " fill="#ADADAD" transform="translate(201,139)"/>
<path d="M0 0 C3.73639216 1.24546405 4.18756513 2.63404953 6 6 C5.01 7.485 5.01 7.485 4 9 C0 2.25 0 2.25 0 0 Z " fill="#717171" transform="translate(199,255)"/>
<path d="M0 0 C2.48478521 2.48478521 3.72090272 3.98745013 5.25 7 C5.60578125 7.680625 5.9615625 8.36125 6.328125 9.0625 C7 11 7 11 6 14 C5.67 12.68 5.34 11.36 5 10 C4.01 10 3.02 10 2 10 C1.34 6.7 0.68 3.4 0 0 Z " fill="#B4B4B4" transform="translate(335,232)"/>
<path d="M0 0 C3.28247841 0.87532757 5.50854152 1.50854152 7.9375 3.9375 C8.288125 4.618125 8.63875 5.29875 9 6 C8.67 6.99 8.34 7.98 8 9 C6.5 7.6875 6.5 7.6875 5 6 C5 5.01 5 4.02 5 3 C2.03 2.505 2.03 2.505 -1 2 C-0.67 1.34 -0.34 0.68 0 0 Z " fill="#636363" transform="translate(371,168)"/>
<path d="M0 0 C4.875 4.75 4.875 4.75 6 7 C1.56909529 5.79157144 -0.98112756 4.48331435 -4 1 C-2.68 1.33 -1.36 1.66 0 2 C0 1.34 0 0.68 0 0 Z " fill="#878787" transform="translate(342,160)"/>
<path d="M0 0 C0 0.66 0 1.32 0 2 C-3.6441774 4.4294516 -5.71241272 4.16179575 -10 4 C-6.95860798 0.50239917 -4.5534811 0 0 0 Z " fill="#565656" transform="translate(214,120)"/>
<path d="M0 0 C3.77545388 1.09068668 6.47043472 1.9083091 9 5 C7.1875 5.625 7.1875 5.625 5 6 C4.01 5.34 3.02 4.68 2 4 C2 3.34 2 2.68 2 2 C1.01 1.67 0.02 1.34 -1 1 C-0.67 0.67 -0.34 0.34 0 0 Z " fill="#7C7C7C" transform="translate(267,108)"/>
<path d="M0 0 C1.32 0.33 2.64 0.66 4 1 C2.4375 2.5625 2.4375 2.5625 0 4 C-3.6875 3.8125 -3.6875 3.8125 -7 3 C-7.33 2.34 -7.66 1.68 -8 1 C-5.36 1.33 -2.72 1.66 0 2 C0 1.34 0 0.68 0 0 Z " fill="#A6A6A6" transform="translate(252,397)"/>
<path d="M0 0 C0.99 0.33 1.98 0.66 3 1 C1.875 2.9375 1.875 2.9375 0 5 C-3.1875 5.75 -3.1875 5.75 -6 6 C-2.25 1.125 -2.25 1.125 0 0 Z " fill="#5D5D5D" transform="translate(268,377)"/>
<path d="M0 0 C0.66 0 1.32 0 2 0 C1.38461538 5.53846154 1.38461538 5.53846154 -0.5625 7.875 C-1.036875 8.24625 -1.51125 8.6175 -2 9 C-2.125 5.625 -2.125 5.625 -2 2 C-1.34 1.34 -0.68 0.68 0 0 Z " fill="#797979" transform="translate(145,287)"/>
<path d="M0 0 C1.5625 1.6875 1.5625 1.6875 3 4 C2.6875 6.75 2.6875 6.75 2 9 C-0.89932357 6.60490662 -1.50168276 4.68754757 -2 1 C-1.34 0.67 -0.68 0.34 0 0 Z " fill="#787878" transform="translate(339,258)"/>
<path d="M0 0 C0.33 0.66 0.66 1.32 1 2 C0.33333333 3.33333333 -0.33333333 4.66666667 -1 6 C-1.2165625 7.546875 -1.2165625 7.546875 -1.4375 9.125 C-1.623125 10.07375 -1.80875 11.0225 -2 12 C-2.99 12.66 -3.98 13.32 -5 14 C-4.03603575 8.79459302 -3.12319499 4.40086567 0 0 Z " fill="#848484" transform="translate(160,238)"/>
<path d="M0 0 C2.91488977 2.6234008 4.88503898 5.71816394 7 9 C6.67 9.66 6.34 10.32 6 11 C5.34 10.01 4.68 9.02 4 8 C1.94996045 6.80767387 1.94996045 6.80767387 0 6 C0 4.02 0 2.04 0 0 Z " fill="#9C9C9C" transform="translate(297,168)"/>
<path d="M0 0 C-1.42859407 1.03325986 -2.86822383 2.05127634 -4.3125 3.0625 C-5.51326172 3.91521484 -5.51326172 3.91521484 -6.73828125 4.78515625 C-7.48464844 5.18605469 -8.23101562 5.58695313 -9 6 C-9.99 5.67 -10.98 5.34 -12 5 C-7.72451559 0.2358888 -7.72451559 0.2358888 -4.3125 -0.875 C-2 -1 -2 -1 0 0 Z " fill="#9C9C9C" transform="translate(173,155)"/>
<path d="M0 0 C4.43090471 1.20842856 6.98112756 2.51668565 10 6 C8.68 6.33 7.36 6.66 6 7 C5.67 6.01 5.34 5.02 5 4 C3.35 3.67 1.7 3.34 0 3 C0 2.01 0 1.02 0 0 Z " fill="#8B8B8B" transform="translate(328,143)"/>
<path d="M0 0 C5.53846154 -0.36923077 5.53846154 -0.36923077 7.875 1.5 C8.24625 1.995 8.6175 2.49 9 3 C8.67 3.66 8.34 4.32 8 5 C2.25 3.375 2.25 3.375 0 0 Z " fill="#7A7A7A" transform="translate(149,343)"/>
<path d="M0 0 C2.96659857 3.55991828 5.381348 7.65222543 7 12 C6.67 12.66 6.34 13.32 6 14 C0 3.6 0 3.6 0 0 Z " fill="#D9D9D9" transform="translate(204,264)"/>
<path d="M0 0 C0.66 0.99 1.32 1.98 2 3 C0.77065985 6.68802044 -0.93859378 7.72356973 -4 10 C-3.43454163 6.04179141 -2.19097652 3.3340947 0 0 Z " fill="#8B8B8B" transform="translate(286,257)"/>
<path d="M0 0 C0.99 0 1.98 0 3 0 C2.34 2.31 1.68 4.62 1 7 C-0.32 7 -1.64 7 -3 7 C-2.690625 6.401875 -2.38125 5.80375 -2.0625 5.1875 C-0.89790296 2.91043228 -0.89790296 2.91043228 0 0 Z " fill="#7D7D7D" transform="translate(309,232)"/>
<path d="M0 0 C0.33 0.99 0.66 1.98 1 3 C-0.65 4.65 -2.3 6.3 -4 8 C-4.99 7.67 -5.98 7.34 -7 7 C-6.3125 5.0625 -6.3125 5.0625 -5 3 C-2.375 2.25 -2.375 2.25 0 2 C0 1.34 0 0.68 0 0 Z " fill="#535353" transform="translate(223,153)"/>
<path d="M0 0 C2.125 0.9375 2.125 0.9375 4 2 C3.67 2.66 3.34 3.32 3 4 C-0.0625 4.625 -0.0625 4.625 -3 5 C-2.625 3.0625 -2.625 3.0625 -2 1 C-1.34 0.67 -0.68 0.34 0 0 Z " fill="#858585" transform="translate(284,378)"/>
<path d="M0 0 C-1 3 -1 3 -2.84765625 4.16796875 C-3.57855469 4.50441406 -4.30945313 4.84085937 -5.0625 5.1875 C-5.79597656 5.53167969 -6.52945312 5.87585938 -7.28515625 6.23046875 C-8.13400391 6.61138672 -8.13400391 6.61138672 -9 7 C-7.21625256 3.00308443 -4.72261474 0 0 0 Z " fill="#1E1E1E" transform="translate(315,361)"/>
<path d="M0 0 C1 3 1 3 0.22265625 4.82421875 C-0.8515625 6.54947917 -1.92578125 8.27473958 -3 10 C-4.1092904 6.67212881 -4.01557588 5.3006216 -3 2 C-2.01 1.34 -1.02 0.68 0 0 Z " fill="#A0A0A0" transform="translate(160,261)"/>
<path d="M0 0 C2.125 0.9375 2.125 0.9375 4 2 C1.4345406 4.5654594 -0.47686668 4.54046087 -4 5 C-2.25 1.125 -2.25 1.125 0 0 Z " fill="#595959" transform="translate(338,201)"/>
<path d="M0 0 C2.475 0.495 2.475 0.495 5 1 C5 2.32 5 3.64 5 5 C2.525 4.01 2.525 4.01 0 3 C0 2.01 0 1.02 0 0 Z " fill="#666666" transform="translate(146,184)"/>
<path d="M0 0 C2.79872437 2.52788007 4.45773019 4.20411134 5 8 C3.68 7.67 2.36 7.34 1 7 C0 2.25 0 2.25 0 0 Z " fill="#858585" transform="translate(270,126)"/>
<path d="M0 0 C0.66 0 1.32 0 2 0 C2 1.65 2 3.3 2 5 C0.68 5.33 -0.64 5.66 -2 6 C-1.125 1.125 -1.125 1.125 0 0 Z " fill="#787878" transform="translate(163,232)"/>
<path d="M0 0 C0.33 0.66 0.66 1.32 1 2 C-0.32 3.32 -1.64 4.64 -3 6 C-3.66 5.67 -4.32 5.34 -5 5 C-5 4.01 -5 3.02 -5 2 C-5.66 1.67 -6.32 1.34 -7 1 C-4.83125748 1.50603992 -3.00032373 1.99983813 -1 3 C-0.67 2.01 -0.34 1.02 0 0 Z " fill="#A0A0A0" transform="translate(181,199)"/>
<path d="M0 0 C2.97 1.98 2.97 1.98 6 4 C5.34 5.32 4.68 6.64 4 8 C0 2.25 0 2.25 0 0 Z " fill="#8F8F8F" transform="translate(278,158)"/>
<path d="M0 0 C0.66 0.33 1.32 0.66 2 1 C1.1875 3.4375 1.1875 3.4375 0 6 C-0.99 6.33 -1.98 6.66 -3 7 C-3.33 5.35 -3.66 3.7 -4 2 C-2.125 0.9375 -2.125 0.9375 0 0 Z " fill="#C0C0C0" transform="translate(232,119)"/>
<path d="M0 0 C0 0.99 0 1.98 0 3 C-4.95 4.485 -4.95 4.485 -10 6 C-4.4 0 -4.4 0 0 0 Z " fill="#B8B8B8" transform="translate(240,103)"/>
<path d="M0 0 C-0.6875 2.4375 -0.6875 2.4375 -2 5 C-4.625 5.8125 -4.625 5.8125 -7 6 C-5.52522876 2.59668175 -4.14385429 0 0 0 Z " fill="#686868" transform="translate(263,391)"/>
<path d="M0 0 C0.66 0.33 1.32 0.66 2 1 C0.71186658 1.83878455 -0.58063256 2.67086783 -1.875 3.5 C-2.59429687 3.9640625 -3.31359375 4.428125 -4.0546875 4.90625 C-6 6 -6 6 -8 6 C-8 5.01 -8 4.02 -8 3 C-7.13375 2.814375 -7.13375 2.814375 -6.25 2.625 C-3.95785175 2.07484649 -3.95785175 2.07484649 -1.875 0.875 C-1.25625 0.58625 -0.6375 0.2975 0 0 Z " fill="#DEDEDE" transform="translate(263,380)"/>
<path d="M0 0 C3.63 0.33 7.26 0.66 11 1 C11 1.33 11 1.66 11 2 C5.06 2.495 5.06 2.495 -1 3 C-0.67 2.01 -0.34 1.02 0 0 Z " fill="#404040" transform="translate(327,331)"/>
<path d="M0 0 C2.672336 3.56311466 3.77263971 5.84585747 5 10 C4.01 10 3.02 10 2 10 C1.34 6.7 0.68 3.4 0 0 Z " fill="#E5E5E5" transform="translate(235,323)"/>
<path d="M0 0 C2.0625 0.75 2.0625 0.75 4 2 C4.33 2.99 4.66 3.98 5 5 C2.97954558 4.39816251 0.97888961 3.72693904 -1 3 C-1.33 2.34 -1.66 1.68 -2 1 C-1.34 0.67 -0.68 0.34 0 0 Z " fill="#7E7E7E" transform="translate(143,192)"/>
<path d="M0 0 C0.99 0.495 0.99 0.495 2 1 C2 1.66 2 2.32 2 3 C2.639375 3.103125 3.27875 3.20625 3.9375 3.3125 C4.618125 3.539375 5.29875 3.76625 6 4 C6.33 4.99 6.66 5.98 7 7 C6.01 7.495 6.01 7.495 5 8 C5 7.34 5 6.68 5 6 C4.360625 5.7525 3.72125 5.505 3.0625 5.25 C1 4 1 4 0.25 1.875 C0.1675 1.25625 0.085 0.6375 0 0 Z " fill="#767676" transform="translate(294,183)"/>
<path d="M0 0 C1.125 3.75 1.125 3.75 0 6 C-0.66 6 -1.32 6 -2 6 C-2 6.66 -2 7.32 -2 8 C-2.66 8 -3.32 8 -4 8 C-2.87548273 5.0280615 -1.77706209 2.66559313 0 0 Z " fill="#929292" transform="translate(219,140)"/>
<path d="M0 0 C0.33 0.66 0.66 1.32 1 2 C-0.30406884 4.01920337 -1.63823419 6.01924973 -3 8 C-3.33 8 -3.66 8 -4 8 C-4 6.02 -4 4.04 -4 2 C-2.68 1.34 -1.36 0.68 0 0 Z " fill="#919191" transform="translate(236,133)"/>
<path d="M0 0 C0.66 0.33 1.32 0.66 2 1 C2 1.66 2 2.32 2 3 C-0.375 4.6875 -0.375 4.6875 -3 6 C-3.66 5.67 -4.32 5.34 -5 5 C-4.1875 3.0625 -4.1875 3.0625 -3 1 C-2.01 0.67 -1.02 0.34 0 0 Z " fill="#7C7C7C" transform="translate(206,132)"/>
<path d="M0 0 C0.99 0.33 1.98 0.66 3 1 C3 1.66 3 2.32 3 3 C4.65 3 6.3 3 8 3 C8 3.33 8 3.66 8 4 C4.37 3.67 0.74 3.34 -3 3 C-2.01 2.01 -1.02 1.02 0 0 Z " fill="#484848" transform="translate(158,329)"/>
<path d="M0 0 C0.99 0.495 0.99 0.495 2 1 C2 1.66 2 2.32 2 3 C2.99 2.34 3.98 1.68 5 1 C5.99 1 6.98 1 8 1 C7.67 1.99 7.34 2.98 7 4 C5.02 4 3.04 4 1 4 C0.67 2.68 0.34 1.36 0 0 Z " fill="#ADADAD" transform="translate(317,199)"/>
<path d="M0 0 C3.26954202 0.56371414 4.82575883 1.49962266 7 4 C5.68 4.33 4.36 4.66 3 5 C2.01 3.35 1.02 1.7 0 0 Z " fill="#818181" transform="translate(167,196)"/>
<path d="M0 0 C0.66 0.66 1.32 1.32 2 2 C-0.78407039 5.08236365 -1.80825346 5.95206337 -6 7 C-4.02 4.69 -2.04 2.38 0 0 Z " fill="#808080" transform="translate(364,186)"/>
<path d="M0 0 C0.75 1.75 0.75 1.75 1 4 C-0.9375 6.25 -0.9375 6.25 -3 8 C-3.33 7.34 -3.66 6.68 -4 6 C-2.68 4.02 -1.36 2.04 0 0 Z " fill="#959595" transform="translate(203,165)"/>
<path d="M0 0 C1.48199902 0.44909061 2.96055236 0.90956564 4.4375 1.375 C5.26121094 1.63023437 6.08492188 1.88546875 6.93359375 2.1484375 C9 3 9 3 10 5 C3.9453125 4.609375 3.9453125 4.609375 2 4 C0.7421875 1.953125 0.7421875 1.953125 0 0 Z " fill="#6A6A6A" transform="translate(361,163)"/>
<path d="M0 0 C-0.33 1.32 -0.66 2.64 -1 4 C-2.98 4 -4.96 4 -7 4 C-3.375 0 -3.375 0 0 0 Z " fill="#878787" transform="translate(168,145)"/>
<path d="M0 0 C2.4375 0.8125 2.4375 0.8125 5 2 C5.33 2.99 5.66 3.98 6 5 C5.34 5.66 4.68 6.32 4 7 C2.02 3.535 2.02 3.535 0 0 Z " fill="#E1E1E1" transform="translate(265,119)"/>
</svg>
